<svg version="1.1" xmlns="http://www.w3.org/2000/svg" viewBox="0 0 2099.4654437650534 1089" width="2099.4654437650534" height="1089">
  <!-- svg-source:excalidraw -->
  
  <defs>
    <style>
      @font-face {
        font-family: "Virgil";
        src: url("https://excalidraw.com/Virgil.woff2");
      }
      @font-face {
        font-family: "Cascadia";
        src: url("https://excalidraw.com/Cascadia.woff2");
      }
    </style>
  </defs>
  <rect x="0" y="0" width="2099.4654437650534" height="1089" fill="#ffffff"></rect><g stroke-linecap="round" transform="translate(1800.313878080414 521.45238095238) rotate(0 133.57614852108236 205.5714285714286)"><path d="M12.5 21.46 C12.5 21.46, 12.5 21.46, 12.5 21.46 M12.5 21.46 C12.5 21.46, 12.5 21.46, 12.5 21.46 M7.64 33.14 C11.61 28.58, 15.57 24.02, 23.39 15.03 M7.64 33.14 C13.46 26.45, 19.27 19.77, 23.39 15.03 M2.79 44.82 C12.87 33.22, 22.96 21.62, 34.28 8.6 M2.79 44.82 C9.52 37.08, 16.26 29.33, 34.28 8.6 M1.87 51.98 C13.9 38.14, 25.92 24.31, 44.51 2.92 M1.87 51.98 C18.72 32.59, 35.57 13.21, 44.51 2.92 M1.61 58.37 C15.61 42.26, 29.62 26.15, 50.81 1.77 M1.61 58.37 C13.5 44.69, 25.4 31.01, 50.81 1.77 M1.35 64.77 C16.67 47.15, 31.99 29.52, 56.46 1.38 M1.35 64.77 C17.64 46.03, 33.94 27.28, 56.46 1.38 M3.05 68.91 C22.27 46.8, 41.49 24.69, 60.79 2.49 M3.05 68.91 C20.02 49.4, 36.98 29.88, 60.79 2.49 M2.79 75.3 C26.15 48.44, 49.5 21.57, 67.74 0.59 M2.79 75.3 C25.45 49.24, 48.1 23.18, 67.74 0.59 M2.53 81.7 C18.46 63.38, 34.39 45.06, 72.73 0.95 M2.53 81.7 C25.75 54.99, 48.97 28.28, 72.73 0.95 M2.93 87.34 C24.11 62.98, 45.28 38.62, 78.37 0.55 M2.93 87.34 C21.65 65.8, 40.38 44.26, 78.37 0.55 M2.66 93.74 C23.88 69.34, 45.09 44.94, 83.36 0.91 M2.66 93.74 C21.16 72.47, 39.66 51.19, 83.36 0.91 M3.06 99.39 C22.81 76.66, 42.57 53.94, 89 0.52 M3.06 99.39 C29.1 69.43, 55.15 39.47, 89 0.52 M2.8 105.78 C27.55 77.3, 52.31 48.83, 93.99 0.88 M2.8 105.78 C37.55 65.81, 72.3 25.84, 93.99 0.88 M2.54 112.18 C24.85 86.52, 47.16 60.85, 99.63 0.48 M2.54 112.18 C25.66 85.58, 48.79 58.98, 99.63 0.48 M2.93 117.82 C25.07 92.36, 47.2 66.9, 104.62 0.84 M2.93 117.82 C32.83 83.43, 62.72 49.04, 104.62 0.84 M2.67 124.22 C39 82.43, 75.34 40.63, 110.26 0.45 M2.67 124.22 C45.07 75.44, 87.48 26.66, 110.26 0.45 M3.06 129.87 C25.59 103.95, 48.12 78.03, 115.25 0.81 M3.06 129.87 C46.97 79.36, 90.87 28.86, 115.25 0.81 M2.8 136.26 C31.75 102.96, 60.7 69.66, 120.89 0.42 M2.8 136.26 C41.41 91.85, 80.02 47.43, 120.89 0.42 M2.54 142.66 C33.95 106.53, 65.36 70.4, 125.88 0.78 M2.54 142.66 C28.69 112.58, 54.83 82.51, 125.88 0.78 M2.94 148.3 C38.69 107.18, 74.44 66.05, 131.52 0.38 M2.94 148.3 C29.74 117.47, 56.53 86.65, 131.52 0.38 M2.67 154.7 C49.16 101.23, 95.64 47.76, 136.51 0.74 M2.67 154.7 C30.84 122.3, 59.01 89.89, 136.51 0.74 M3.07 160.34 C57.98 97.17, 112.9 34, 141.5 1.1 M3.07 160.34 C34.33 124.38, 65.6 88.41, 141.5 1.1 M2.81 166.74 C57.84 103.44, 112.87 40.13, 147.14 0.71 M2.81 166.74 C54.33 107.47, 105.85 48.2, 147.14 0.71 M2.55 173.14 C61.75 105.03, 120.96 36.93, 152.13 1.07 M2.55 173.14 C59.72 107.37, 116.9 41.59, 152.13 1.07 M2.94 178.78 C63.85 108.71, 124.76 38.64, 157.77 0.67 M2.94 178.78 C55.16 118.71, 107.39 58.63, 157.77 0.67 M2.68 185.18 C51.41 129.13, 100.14 73.07, 162.76 1.03 M2.68 185.18 C50.1 130.64, 97.51 76.09, 162.76 1.03 M3.07 190.82 C61.76 123.32, 120.44 55.81, 168.4 0.64 M3.07 190.82 C61.4 123.72, 119.74 56.62, 168.4 0.64 M2.81 197.22 C68.64 121.5, 134.47 45.77, 173.39 1 M2.81 197.22 C37.26 157.59, 71.71 117.97, 173.39 1 M2.55 203.62 C68.12 128.19, 133.68 52.77, 179.03 0.6 M2.55 203.62 C59.13 138.53, 115.72 73.44, 179.03 0.6 M2.95 209.26 C64.18 138.82, 125.41 68.38, 184.02 0.96 M2.95 209.26 C66.2 136.5, 129.46 63.73, 184.02 0.96 M2.68 215.66 C55.62 154.77, 108.56 93.87, 189.66 0.57 M2.68 215.66 C53.79 156.87, 104.9 98.07, 189.66 0.57 M3.08 221.3 C59.27 156.67, 115.46 92.03, 194.65 0.93 M3.08 221.3 C42.13 176.38, 81.18 131.46, 194.65 0.93 M2.82 227.7 C54.97 167.71, 107.11 107.72, 200.29 0.53 M2.82 227.7 C73.77 146.08, 144.71 64.47, 200.29 0.53 M2.56 234.1 C46.73 183.28, 90.91 132.47, 205.28 0.89 M2.56 234.1 C52.54 176.6, 102.53 119.09, 205.28 0.89 M2.95 239.74 C49.36 186.35, 95.78 132.96, 210.92 0.5 M2.95 239.74 C53.35 181.76, 103.76 123.78, 210.92 0.5 M2.69 246.14 C69.4 169.39, 136.12 92.65, 215.91 0.86 M2.69 246.14 C82.49 154.34, 162.29 62.54, 215.91 0.86 M3.08 251.78 C47.01 201.26, 90.93 150.73, 218.93 3.48 M3.08 251.78 C68.29 176.77, 133.5 101.75, 218.93 3.48 M2.82 258.18 C49.9 204.03, 96.97 149.87, 223.26 4.6 M2.82 258.18 C68.79 182.3, 134.75 106.41, 223.26 4.6 M2.56 264.58 C88.64 165.55, 174.73 66.52, 227.59 5.71 M2.56 264.58 C55.15 204.08, 107.74 143.58, 227.59 5.71 M2.96 270.22 C92.16 167.61, 181.36 65, 231.92 6.83 M2.96 270.22 C82.98 178.16, 163.01 86.1, 231.92 6.83 M2.69 276.62 C66.27 203.49, 129.84 130.36, 236.25 7.94 M2.69 276.62 C60.6 210, 118.51 143.39, 236.25 7.94 M3.09 282.26 C84.8 188.26, 166.52 94.26, 239.93 9.81 M3.09 282.26 C66.72 209.06, 130.36 135.86, 239.93 9.81 M2.83 288.66 C79.55 200.4, 156.28 112.14, 243.6 11.68 M2.83 288.66 C68.13 213.54, 133.43 138.42, 243.6 11.68 M2.57 295.06 C55.85 233.77, 109.12 172.48, 246.62 14.31 M2.57 295.06 C55.27 234.43, 107.98 173.79, 246.62 14.31 M2.96 300.7 C77.8 214.61, 152.64 128.52, 250.29 16.18 M2.96 300.7 C88.43 202.37, 173.91 104.05, 250.29 16.18 M2.7 307.1 C98.49 196.9, 194.29 86.7, 253.31 18.8 M2.7 307.1 C94.48 201.52, 186.25 95.94, 253.31 18.8 M3.09 312.74 C88.7 214.26, 174.32 115.77, 255.68 22.18 M3.09 312.74 C60.86 246.29, 118.63 179.83, 255.68 22.18 M2.83 319.14 C65.1 247.51, 127.37 175.87, 258.04 25.56 M2.83 319.14 C81.92 228.16, 161.01 137.17, 258.04 25.56 M2.57 325.54 C74.02 243.35, 145.46 161.16, 260.4 28.94 M2.57 325.54 C104.13 208.71, 205.68 91.89, 260.4 28.94 M2.97 331.18 C66.49 258.11, 130.01 185.03, 262.11 33.07 M2.97 331.18 C68.57 255.71, 134.17 180.24, 262.11 33.07 M2.7 337.58 C81.25 247.22, 159.8 156.87, 263.82 37.2 M2.7 337.58 C62.76 268.49, 122.82 199.4, 263.82 37.2 M1.13 345.49 C70.11 266.13, 139.1 186.77, 264.87 42.09 M1.13 345.49 C58.54 279.44, 115.96 213.39, 264.87 42.09 M1.52 351.13 C88.51 251.07, 175.49 151, 266.57 46.23 M1.52 351.13 C65.57 277.45, 129.62 203.77, 266.57 46.23 M1.92 356.77 C55.88 294.69, 109.85 232.61, 266.97 51.87 M1.92 356.77 C65.76 283.33, 129.6 209.9, 266.97 51.87 M2.97 361.66 C58.94 297.27, 114.91 232.89, 267.36 57.51 M2.97 361.66 C68.79 285.94, 134.62 210.22, 267.36 57.51 M3.36 367.3 C60.45 301.63, 117.55 235.95, 267.76 63.16 M3.36 367.3 C102.68 253.06, 201.99 138.81, 267.76 63.16 M4.42 372.19 C93.84 269.32, 183.26 166.46, 268.81 68.04 M4.42 372.19 C106.93 254.26, 209.44 136.33, 268.81 68.04 M6.12 376.33 C78.97 292.52, 151.82 208.72, 268.55 74.44 M6.12 376.33 C82.39 288.59, 158.66 200.85, 268.55 74.44 M7.83 380.46 C67.62 311.67, 127.42 242.89, 268.94 80.08 M7.83 380.46 C88.61 287.53, 169.4 194.6, 268.94 80.08 M10.19 383.84 C62.41 323.77, 114.63 263.69, 268.68 86.48 M10.19 383.84 C80 303.53, 149.81 223.23, 268.68 86.48 M11.9 387.97 C99.02 287.74, 186.15 187.52, 268.42 92.88 M11.9 387.97 C109.62 275.56, 207.34 163.14, 268.42 92.88 M14.26 391.35 C74.59 321.95, 134.93 252.54, 268.81 98.52 M14.26 391.35 C68.68 328.74, 123.11 266.14, 268.81 98.52 M17.28 393.97 C82.65 318.78, 148.02 243.58, 268.55 104.92 M17.28 393.97 C88.92 311.56, 160.56 229.15, 268.55 104.92 M19.64 397.35 C85.65 321.42, 151.65 245.5, 268.94 110.56 M19.64 397.35 C78.81 329.29, 137.97 261.23, 268.94 110.56 M22.66 399.98 C100.13 310.86, 177.6 221.74, 268.68 116.96 M22.66 399.98 C76.82 337.68, 130.97 275.38, 268.68 116.96 M26.34 401.85 C75.19 345.65, 124.04 289.45, 268.42 123.36 M26.34 401.85 C92.11 326.18, 157.89 250.51, 268.42 123.36 M30.01 403.72 C116.6 304.11, 203.19 204.5, 268.82 129 M30.01 403.72 C101.64 321.32, 173.27 238.92, 268.82 129 M33.03 406.34 C127.02 298.22, 221.01 190.1, 268.56 135.4 M33.03 406.34 C95.14 334.89, 157.25 263.44, 268.56 135.4 M38.02 406.7 C129.55 301.4, 221.09 196.1, 268.95 141.04 M38.02 406.7 C119.79 312.63, 201.56 218.56, 268.95 141.04 M42.35 407.82 C97.09 344.84, 151.83 281.87, 268.69 147.44 M42.35 407.82 C127.38 310, 212.41 212.18, 268.69 147.44 M46.68 408.93 C122.9 321.25, 199.12 233.57, 268.43 153.84 M46.68 408.93 C119.36 325.33, 192.03 241.72, 268.43 153.84 M51.01 410.05 C127.21 322.39, 203.41 234.73, 268.82 159.48 M51.01 410.05 C134.99 313.43, 218.98 216.82, 268.82 159.48 M54.03 412.67 C111.2 346.9, 168.38 281.13, 268.56 165.88 M54.03 412.67 C114.46 343.15, 174.89 273.64, 268.56 165.88 M59.02 413.03 C137.94 322.24, 216.86 231.45, 268.3 172.28 M59.02 413.03 C119.09 343.93, 179.16 274.82, 268.3 172.28 M64 413.39 C137.89 328.39, 211.78 243.4, 268.69 177.92 M64 413.39 C144.31 321.01, 224.61 228.63, 268.69 177.92 M69.65 413 C111.8 364.5, 153.95 316.01, 268.43 184.32 M69.65 413 C127.15 346.85, 184.65 280.7, 268.43 184.32 M74.63 413.36 C144.1 333.44, 213.57 253.53, 268.83 189.96 M74.63 413.36 C142.93 334.78, 211.24 256.21, 268.83 189.96 M79.62 413.72 C150.94 331.67, 222.27 249.62, 268.56 196.36 M79.62 413.72 C120.64 366.53, 161.66 319.34, 268.56 196.36 M85.26 413.32 C144.16 345.57, 203.05 277.82, 268.3 202.76 M85.26 413.32 C152.53 335.93, 219.81 258.55, 268.3 202.76 M90.25 413.68 C131.4 366.35, 172.54 319.01, 268.7 208.4 M90.25 413.68 C145.76 349.83, 201.27 285.97, 268.7 208.4 M95.89 413.29 C139.45 363.18, 183 313.08, 268.44 214.8 M95.89 413.29 C158.53 341.23, 221.17 269.17, 268.44 214.8 M100.88 413.65 C161.83 343.53, 222.78 273.42, 268.83 220.44 M100.88 413.65 C139.04 369.75, 177.2 325.85, 268.83 220.44 M106.52 413.25 C152.46 360.4, 198.4 307.56, 268.57 226.84 M106.52 413.25 C167.64 342.95, 228.76 272.64, 268.57 226.84 M111.51 413.61 C142.93 377.47, 174.35 341.33, 268.31 233.24 M111.51 413.61 C148.72 370.81, 185.93 328, 268.31 233.24 M117.15 413.22 C160.05 363.87, 202.95 314.52, 268.7 238.88 M117.15 413.22 C172.38 349.68, 227.62 286.15, 268.7 238.88 M122.14 413.58 C151.88 379.36, 181.62 345.15, 268.44 245.28 M122.14 413.58 C155.6 375.09, 189.06 336.59, 268.44 245.28 M127.78 413.18 C163.56 372.03, 199.33 330.87, 268.84 250.92 M127.78 413.18 C183.51 349.08, 239.23 284.98, 268.84 250.92 M132.77 413.54 C168.94 371.94, 205.11 330.33, 268.57 257.32 M132.77 413.54 C174.11 365.99, 215.44 318.44, 268.57 257.32 M138.41 413.15 C181.55 363.53, 224.68 313.91, 268.31 263.72 M138.41 413.15 C171.51 375.08, 204.61 337, 268.31 263.72 M143.4 413.51 C183.32 367.59, 223.24 321.67, 268.71 269.36 M143.4 413.51 C191.38 358.31, 239.36 303.12, 268.71 269.36 M149.04 413.11 C195.56 359.6, 242.07 306.1, 268.45 275.76 M149.04 413.11 C178.3 379.45, 207.56 345.8, 268.45 275.76 M154.03 413.47 C191.16 370.76, 228.29 328.05, 268.84 281.4 M154.03 413.47 C199.79 360.84, 245.54 308.2, 268.84 281.4 M159.67 413.08 C184.92 384.04, 210.16 355, 268.58 287.8 M159.67 413.08 C201.37 365.11, 243.07 317.14, 268.58 287.8 M164.66 413.44 C193.54 380.21, 222.43 346.99, 268.32 294.2 M164.66 413.44 C195.87 377.53, 227.09 341.63, 268.32 294.2 M170.3 413.05 C209.54 367.91, 248.78 322.77, 268.71 299.84 M170.3 413.05 C190.08 390.29, 209.86 367.54, 268.71 299.84 M175.29 413.41 C195.46 390.21, 215.62 367.01, 268.45 306.24 M175.29 413.41 C199.15 385.96, 223.02 358.5, 268.45 306.24 M180.93 413.01 C212.76 376.4, 244.58 339.79, 268.19 312.63 M180.93 413.01 C211.26 378.12, 241.59 343.23, 268.19 312.63 M185.92 413.37 C202.74 394.02, 219.56 374.68, 268.58 318.28 M185.92 413.37 C206.15 390.1, 226.38 366.83, 268.58 318.28 M190.91 413.73 C217.12 383.58, 243.32 353.43, 268.32 324.68 M190.91 413.73 C220.84 379.3, 250.77 344.87, 268.32 324.68 M196.55 413.34 C221.12 385.07, 245.7 356.8, 268.72 330.32 M196.55 413.34 C215.57 391.46, 234.59 369.58, 268.72 330.32 M202.19 412.94 C219.64 392.87, 237.08 372.81, 268.46 336.72 M202.19 412.94 C228.55 382.63, 254.9 352.31, 268.46 336.72 M207.84 412.55 C229.74 387.35, 251.65 362.15, 268.19 343.11 M207.84 412.55 C227.45 389.98, 247.06 367.42, 268.19 343.11 M213.48 412.15 C225.41 398.43, 237.33 384.71, 268.59 348.76 M213.48 412.15 C234.19 388.32, 254.91 364.49, 268.59 348.76 M218.47 412.51 C230.61 398.54, 242.75 384.57, 268.98 354.4 M218.47 412.51 C231.45 397.58, 244.43 382.64, 268.98 354.4 M225.42 410.61 C234.37 400.31, 243.32 390.02, 268.07 361.55 M225.42 410.61 C235.32 399.23, 245.21 387.84, 268.07 361.55 M235.66 404.93 C247.53 391.28, 259.4 377.62, 267.15 368.71 M235.66 404.93 C245.21 393.95, 254.76 382.96, 267.15 368.71 M246.55 398.5 C251.15 393.2, 255.76 387.91, 258.36 384.91 M246.55 398.5 C251.18 393.17, 255.82 387.83, 258.36 384.91" stroke="#4c6ef5" stroke-width="0.5" fill="none"></path><path d="M66.79 0 M66.79 0 C94.98 0, 123.17 0, 200.36 0 M66.79 0 C109.92 0, 153.05 0, 200.36 0 M200.36 0 C244.89 0, 267.15 22.26, 267.15 66.79 M200.36 0 C244.89 0, 267.15 22.26, 267.15 66.79 M267.15 66.79 C267.15 134.09, 267.15 201.4, 267.15 344.35 M267.15 66.79 C267.15 174.92, 267.15 283.05, 267.15 344.35 M267.15 344.35 C267.15 388.88, 244.89 411.14, 200.36 411.14 M267.15 344.35 C267.15 388.88, 244.89 411.14, 200.36 411.14 M200.36 411.14 C163.53 411.14, 126.69 411.14, 66.79 411.14 M200.36 411.14 C158.2 411.14, 116.03 411.14, 66.79 411.14 M66.79 411.14 C22.26 411.14, 0 388.88, 0 344.35 M66.79 411.14 C22.26 411.14, 0 388.88, 0 344.35 M0 344.35 C0 256.94, 0 169.53, 0 66.79 M0 344.35 C0 280.9, 0 217.44, 0 66.79 M0 66.79 C0 22.26, 22.26 0, 66.79 0 M0 66.79 C0 22.26, 22.26 0, 66.79 0" stroke="#364fc7" stroke-width="1" fill="none"></path></g><g transform="translate(1896.3075848142082 701.6669813299764) rotate(0 33.50723725613602 19.470421648835725)"><text x="0" y="30.940843297671478" font-family="Helvetica, Segoe UI Emoji" font-size="32.60163624921334px" fill="#000000" text-anchor="start" style="white-space: pre;" direction="ltr">PHP</text></g><g stroke-linecap="round" transform="translate(1322.9930263917197 517.6428571428564) rotate(0 130.791378225299 201.2857142857144)"><path d="M12.78 20.39 C12.78 20.39, 12.78 20.39, 12.78 20.39 M12.78 20.39 C12.78 20.39, 12.78 20.39, 12.78 20.39 M7.93 32.07 C12.91 26.34, 17.89 20.61, 23.02 14.71 M7.93 32.07 C11.6 27.85, 15.27 23.62, 23.02 14.71 M3.07 43.75 C11.48 34.08, 19.88 24.42, 33.25 9.03 M3.07 43.75 C10.18 35.58, 17.28 27.41, 33.25 9.03 M2.16 50.9 C11.63 40, 21.11 29.1, 44.14 2.6 M2.16 50.9 C18.76 31.8, 35.36 12.71, 44.14 2.6 M1.9 57.3 C11.85 45.84, 21.81 34.39, 50.44 1.45 M1.9 57.3 C16.34 40.68, 30.79 24.06, 50.44 1.45 M0.32 65.21 C16.47 46.63, 32.62 28.06, 56.09 1.06 M0.32 65.21 C16.62 46.45, 32.93 27.7, 56.09 1.06 M0.06 71.6 C19.2 49.59, 38.34 27.57, 61.73 0.66 M0.06 71.6 C17.76 51.24, 35.47 30.87, 61.73 0.66 M-0.2 78 C24.95 49.07, 50.1 20.14, 66.72 1.02 M-0.2 78 C21.73 52.77, 43.66 27.54, 66.72 1.02 M0.19 83.64 C28.11 51.53, 56.03 19.41, 71.7 1.38 M0.19 83.64 C27.37 52.38, 54.55 21.11, 71.7 1.38 M-0.07 90.04 C28.8 56.83, 57.68 23.62, 77.35 0.99 M-0.07 90.04 C23.99 62.37, 48.05 34.69, 77.35 0.99 M0.33 95.69 C31.15 60.23, 61.98 24.77, 82.33 1.35 M0.33 95.69 C22.36 70.34, 44.4 44.99, 82.33 1.35 M0.07 102.08 C17.97 81.49, 35.87 60.89, 87.98 0.95 M0.07 102.08 C23.48 75.15, 46.89 48.22, 87.98 0.95 M-0.2 108.48 C30.71 72.93, 61.62 37.37, 92.96 1.31 M-0.2 108.48 C33.4 69.83, 67 31.18, 92.96 1.31 M0.2 114.12 C22.36 88.63, 44.52 63.14, 98.61 0.92 M0.2 114.12 C23.31 87.54, 46.41 60.96, 98.61 0.92 M-0.06 120.52 C26.62 89.83, 53.3 59.13, 103.59 1.28 M-0.06 120.52 C39.24 75.31, 78.54 30.1, 103.59 1.28 M0.33 126.16 C25.27 97.47, 50.22 68.78, 109.24 0.88 M0.33 126.16 C30 92.04, 59.67 57.91, 109.24 0.88 M0.07 132.56 C32.78 94.93, 65.5 57.3, 114.22 1.24 M0.07 132.56 C41.52 84.87, 82.98 37.19, 114.22 1.24 M-0.19 138.96 C28.76 105.65, 57.71 72.35, 119.87 0.85 M-0.19 138.96 C29.92 104.32, 60.04 69.68, 119.87 0.85 M0.2 144.6 C36.02 103.4, 71.84 62.19, 124.85 1.21 M0.2 144.6 C33.51 106.29, 66.81 67.98, 124.85 1.21 M-0.06 151 C41.96 102.66, 83.98 54.32, 130.5 0.81 M-0.06 151 C33.55 112.34, 67.15 73.69, 130.5 0.81 M0.34 156.64 C35.78 115.87, 71.22 75.1, 135.48 1.17 M0.34 156.64 C49.18 100.46, 98.02 44.27, 135.48 1.17 M0.08 163.04 C51.67 103.68, 103.27 44.33, 141.13 0.78 M0.08 163.04 C55.81 98.93, 111.54 34.82, 141.13 0.78 M-0.19 169.44 C50.75 110.85, 101.68 52.25, 146.11 1.14 M-0.19 169.44 C33.7 130.45, 67.59 91.47, 146.11 1.14 M0.21 175.08 C45.99 122.42, 91.77 69.76, 151.76 0.74 M0.21 175.08 C58.19 108.38, 116.17 41.68, 151.76 0.74 M-0.05 181.48 C33.86 142.47, 67.77 103.46, 156.74 1.1 M-0.05 181.48 C59.42 113.07, 118.89 44.66, 156.74 1.1 M0.34 187.12 C47.8 132.53, 95.26 77.93, 161.73 1.47 M0.34 187.12 C57.48 121.4, 114.61 55.67, 161.73 1.47 M0.08 193.52 C45.62 141.13, 91.16 88.75, 167.37 1.07 M0.08 193.52 C37.11 150.92, 74.15 108.32, 167.37 1.07 M-0.18 199.92 C58.41 132.51, 117.01 65.11, 172.36 1.43 M-0.18 199.92 C44.56 148.45, 89.3 96.98, 172.36 1.43 M0.21 205.56 C45.73 153.21, 91.24 100.85, 178.01 1.04 M0.21 205.56 C51.87 146.13, 103.53 86.7, 178.01 1.04 M-0.05 211.96 C49.53 154.93, 99.1 97.9, 182.99 1.4 M-0.05 211.96 C48.25 156.4, 96.55 100.83, 182.99 1.4 M0.35 217.6 C45.9 165.19, 91.46 112.78, 188.64 1 M0.35 217.6 C44.63 166.66, 88.91 115.72, 188.64 1 M0.08 224 C68.66 145.11, 137.24 66.22, 193.62 1.36 M0.08 224 C67.6 146.33, 135.12 68.66, 193.62 1.36 M-0.18 230.4 C47.31 175.78, 94.79 121.15, 198.61 1.72 M-0.18 230.4 C43.38 180.29, 86.93 130.19, 198.61 1.72 M0.22 236.04 C59.41 167.95, 118.6 99.85, 203.6 2.08 M0.22 236.04 C63.47 163.28, 126.72 90.52, 203.6 2.08 M-0.04 242.44 C81.28 148.88, 162.61 55.33, 208.58 2.44 M-0.04 242.44 C67.11 165.18, 134.27 87.93, 208.58 2.44 M0.35 248.08 C46.46 195.04, 92.57 142, 213.57 2.8 M0.35 248.08 C77.67 159.14, 154.99 70.19, 213.57 2.8 M0.09 254.48 C81.18 161.19, 162.28 67.9, 217.9 3.92 M0.09 254.48 C73.87 169.61, 147.65 84.73, 217.9 3.92 M-0.17 260.88 C66.47 184.22, 133.11 107.56, 222.23 5.03 M-0.17 260.88 C73.61 176.01, 147.38 91.14, 222.23 5.03 M0.22 266.52 C90.35 162.84, 180.49 59.15, 226.56 6.15 M0.22 266.52 C86.32 167.48, 172.41 68.44, 226.56 6.15 M-0.04 272.92 C79.69 181.2, 159.41 89.49, 230.89 7.26 M-0.04 272.92 C60.44 203.34, 120.92 133.77, 230.89 7.26 M0.36 278.56 C50.42 220.97, 100.48 163.38, 234.57 9.13 M0.36 278.56 C64.36 204.94, 128.36 131.31, 234.57 9.13 M0.09 284.96 C93.33 177.71, 186.56 70.45, 238.24 11 M0.09 284.96 C50.67 226.78, 101.25 168.59, 238.24 11 M-0.17 291.36 C72.16 208.16, 144.48 124.96, 241.26 13.62 M-0.17 291.36 C86.61 191.54, 173.38 91.71, 241.26 13.62 M0.23 297 C76.18 209.63, 152.13 122.25, 244.28 16.25 M0.23 297 C63.2 224.56, 126.17 152.13, 244.28 16.25 M-0.03 303.4 C67.08 226.2, 134.18 149, 247.96 18.12 M-0.03 303.4 C73.5 218.81, 147.04 134.21, 247.96 18.12 M0.36 309.04 C53.24 248.21, 106.13 187.37, 250.32 21.5 M0.36 309.04 C72.67 225.86, 144.98 142.68, 250.32 21.5 M0.1 315.44 C69.7 235.37, 139.3 155.3, 252.03 25.63 M0.1 315.44 C65.06 240.71, 130.02 165.98, 252.03 25.63 M-0.16 321.84 C59.43 253.28, 119.02 184.73, 254.39 29.01 M-0.16 321.84 C53.88 259.67, 107.92 197.51, 254.39 29.01 M0.23 327.48 C51.61 268.37, 103 209.26, 256.75 32.39 M0.23 327.48 C85.49 229.41, 170.74 131.33, 256.75 32.39 M-0.03 333.88 C91.67 228.39, 183.38 122.89, 258.46 36.52 M-0.03 333.88 C90.12 230.17, 180.28 126.46, 258.46 36.52 M1.68 338.01 C68.92 260.66, 136.16 183.31, 259.51 41.41 M1.68 338.01 C85.35 241.75, 169.03 145.5, 259.51 41.41 M2.07 343.65 C101.79 228.94, 201.52 114.22, 261.87 44.79 M2.07 343.65 C63.4 273.1, 124.74 202.55, 261.87 44.79 M1.81 350.05 C56.43 287.22, 111.06 224.38, 261.61 51.19 M1.81 350.05 C93.93 244.08, 186.05 138.11, 261.61 51.19 M3.52 354.19 C98.13 245.35, 192.74 136.51, 262 56.83 M3.52 354.19 C62.24 286.63, 120.96 219.08, 262 56.83 M3.26 360.58 C90.21 260.56, 177.16 160.53, 262.4 62.47 M3.26 360.58 C70.18 283.59, 137.11 206.6, 262.4 62.47 M4.96 364.72 C103.28 251.62, 201.59 138.52, 263.45 67.36 M4.96 364.72 C80.1 278.28, 155.24 191.85, 263.45 67.36 M6.67 368.85 C72.99 292.56, 139.31 216.26, 263.84 73.01 M6.67 368.85 C106.2 254.35, 205.73 139.86, 263.84 73.01 M8.38 372.98 C95.21 273.1, 182.04 173.21, 263.58 79.4 M8.38 372.98 C62.18 311.09, 115.98 249.2, 263.58 79.4 M9.43 377.87 C93.95 280.64, 178.48 183.4, 263.32 85.8 M9.43 377.87 C62.2 317.16, 114.98 256.45, 263.32 85.8 M12.45 380.5 C111.33 266.75, 210.21 153, 263.72 91.44 M12.45 380.5 C109.8 268.51, 207.15 156.52, 263.72 91.44 M14.81 383.88 C77.12 312.19, 139.44 240.51, 263.45 97.84 M14.81 383.88 C90.27 297.06, 165.74 210.25, 263.45 97.84 M17.17 387.26 C96.69 295.78, 176.21 204.3, 263.85 103.48 M17.17 387.26 C75.39 320.28, 133.62 253.3, 263.85 103.48 M20.19 389.88 C77.47 323.98, 134.76 258.08, 263.59 109.88 M20.19 389.88 C110.78 285.67, 201.37 181.45, 263.59 109.88 M23.87 391.75 C106.08 297.18, 188.29 202.61, 263.33 116.28 M23.87 391.75 C116.7 284.96, 209.53 178.16, 263.33 116.28 M26.88 394.37 C85.11 327.39, 143.35 260.4, 263.72 121.92 M26.88 394.37 C80.85 332.29, 134.82 270.21, 263.72 121.92 M30.56 396.24 C102.13 313.91, 173.7 231.58, 263.46 128.32 M30.56 396.24 C97.9 318.78, 165.24 241.31, 263.46 128.32 M34.23 398.11 C120.41 298.98, 206.58 199.85, 263.85 133.96 M34.23 398.11 C80.17 345.27, 126.11 292.42, 263.85 133.96 M37.91 399.98 C105.53 322.19, 173.15 244.4, 263.59 140.36 M37.91 399.98 C83.66 347.35, 129.42 294.72, 263.59 140.36 M42.9 400.34 C98.24 336.68, 153.59 273.01, 263.33 146.76 M42.9 400.34 C116.51 315.66, 190.12 230.98, 263.33 146.76 M47.23 401.46 C99.18 341.69, 151.14 281.92, 263.73 152.4 M47.23 401.46 C91.93 350.04, 136.62 298.62, 263.73 152.4 M51.56 402.57 C101.38 345.26, 151.2 287.95, 263.46 158.8 M51.56 402.57 C134.26 307.43, 216.97 212.29, 263.46 158.8 M56.54 402.93 C114.9 335.8, 173.26 268.66, 263.2 165.2 M56.54 402.93 C137.95 309.28, 219.36 215.63, 263.2 165.2 M61.53 403.29 C106.72 351.31, 151.91 299.32, 263.6 170.84 M61.53 403.29 C111.15 346.22, 160.76 289.14, 263.6 170.84 M66.52 403.65 C108.9 354.9, 151.27 306.15, 263.34 177.24 M66.52 403.65 C120.51 341.54, 174.51 279.42, 263.34 177.24 M72.16 403.26 C119.53 348.77, 166.9 294.27, 263.73 182.88 M72.16 403.26 C128.05 338.97, 183.93 274.68, 263.73 182.88 M77.15 403.62 C125.88 347.56, 174.61 291.51, 263.47 189.28 M77.15 403.62 C146.57 323.76, 215.99 243.9, 263.47 189.28 M82.79 403.22 C131.68 346.98, 180.58 290.73, 263.21 195.68 M82.79 403.22 C125.46 354.14, 168.13 305.05, 263.21 195.68 M87.78 403.58 C136.7 347.31, 185.62 291.03, 263.6 201.32 M87.78 403.58 C128.06 357.24, 168.34 310.9, 263.6 201.32 M92.77 403.94 C160 326.6, 227.24 249.25, 263.34 207.72 M92.77 403.94 C144.48 344.45, 196.2 284.96, 263.34 207.72 M98.41 403.55 C157.42 335.66, 216.44 267.77, 263.74 213.36 M98.41 403.55 C131.48 365.51, 164.55 327.46, 263.74 213.36 M103.4 403.91 C143.51 357.77, 183.62 311.63, 263.47 219.76 M103.4 403.91 C140.32 361.43, 177.24 318.96, 263.47 219.76 M109.04 403.51 C143.52 363.85, 178 324.18, 263.21 226.16 M109.04 403.51 C148.67 357.92, 188.31 312.33, 263.21 226.16 M114.03 403.87 C145.18 368.04, 176.33 332.2, 263.61 231.8 M114.03 403.87 C154.94 356.81, 195.84 309.75, 263.61 231.8 M119.67 403.48 C153.95 364.04, 188.23 324.61, 263.35 238.2 M119.67 403.48 C175.36 339.42, 231.05 275.35, 263.35 238.2 M124.66 403.84 C176.09 344.68, 227.51 285.51, 263.74 243.84 M124.66 403.84 C152.73 371.55, 180.8 339.25, 263.74 243.84 M130.3 403.45 C183.1 342.7, 235.91 281.95, 263.48 250.24 M130.3 403.45 C182.85 342.99, 235.4 282.54, 263.48 250.24 M135.29 403.81 C182.87 349.07, 230.45 294.33, 263.22 256.64 M135.29 403.81 C173.86 359.44, 212.42 315.07, 263.22 256.64 M140.93 403.41 C180.97 357.35, 221.01 311.28, 263.61 262.28 M140.93 403.41 C177.32 361.55, 213.71 319.68, 263.61 262.28 M145.92 403.77 C191.25 351.62, 236.58 299.47, 263.35 268.68 M145.92 403.77 C189.82 353.27, 233.72 302.76, 263.35 268.68 M151.56 403.38 C184.28 365.73, 217.01 328.09, 263.75 274.32 M151.56 403.38 C188.35 361.05, 225.14 318.73, 263.75 274.32 M156.55 403.74 C190.51 364.66, 224.48 325.59, 263.48 280.72 M156.55 403.74 C192.48 362.4, 228.4 321.07, 263.48 280.72 M162.19 403.34 C201.62 357.99, 241.04 312.63, 263.22 287.12 M162.19 403.34 C196.38 364.01, 230.57 324.67, 263.22 287.12 M167.18 403.7 C187.12 380.76, 207.06 357.82, 263.62 292.76 M167.18 403.7 C188.45 379.23, 209.71 354.77, 263.62 292.76 M172.82 403.31 C204.88 366.42, 236.95 329.54, 263.36 299.16 M172.82 403.31 C208.45 362.32, 244.08 321.34, 263.36 299.16 M177.81 403.67 C197.23 381.32, 216.66 358.97, 263.09 305.55 M177.81 403.67 C209.86 366.79, 241.91 329.92, 263.09 305.55 M183.45 403.27 C211.47 371.04, 239.49 338.81, 263.49 311.2 M183.45 403.27 C213.41 368.81, 243.37 334.34, 263.49 311.2 M188.44 403.63 C210.08 378.73, 231.72 353.84, 263.23 317.6 M188.44 403.63 C208.31 380.77, 228.19 357.91, 263.23 317.6 M194.08 403.24 C220.42 372.93, 246.77 342.63, 263.62 323.24 M194.08 403.24 C220.34 373.03, 246.6 342.82, 263.62 323.24 M198.41 404.35 C213.66 386.81, 228.91 369.27, 263.36 329.64 M198.41 404.35 C215.94 384.19, 233.46 364.03, 263.36 329.64 M204.05 403.96 C220.34 385.23, 236.62 366.49, 263.1 336.03 M204.05 403.96 C222.69 382.52, 241.33 361.07, 263.1 336.03 M209.7 403.56 C222.68 388.63, 235.66 373.69, 263.49 341.68 M209.7 403.56 C224.93 386.03, 240.17 368.5, 263.49 341.68 M214.68 403.92 C229.97 386.34, 245.25 368.76, 263.89 347.32 M214.68 403.92 C230.26 386.01, 245.83 368.09, 263.89 347.32 M220.98 402.77 C230.26 392.1, 239.54 381.42, 262.97 354.47 M220.98 402.77 C234.29 387.47, 247.59 372.17, 262.97 354.47 M231.22 397.1 C243.16 383.36, 255.1 369.62, 262.05 361.63 M231.22 397.1 C241.2 385.61, 251.19 374.13, 262.05 361.63" stroke="#fa5252" stroke-width="0.5" fill="none"></path><path d="M65.4 0 M65.4 0 C94.18 0, 122.96 0, 196.19 0 M65.4 0 C104.23 0, 143.07 0, 196.19 0 M196.19 0 C239.78 0, 261.58 21.8, 261.58 65.4 M196.19 0 C239.78 0, 261.58 21.8, 261.58 65.4 M261.58 65.4 C261.58 143.24, 261.58 221.08, 261.58 337.18 M261.58 65.4 C261.58 127.64, 261.58 189.89, 261.58 337.18 M261.58 337.18 C261.58 380.77, 239.78 402.57, 196.19 402.57 M261.58 337.18 C261.58 380.77, 239.78 402.57, 196.19 402.57 M196.19 402.57 C158.28 402.57, 120.37 402.57, 65.4 402.57 M196.19 402.57 C154.22 402.57, 112.25 402.57, 65.4 402.57 M65.4 402.57 C21.8 402.57, 0 380.77, 0 337.18 M65.4 402.57 C21.8 402.57, 0 380.77, 0 337.18 M0 337.18 C0 247.54, 0 157.91, 0 65.4 M0 337.18 C0 275.72, 0 214.26, 0 65.4 M0 65.4 C0 21.8, 21.8 0, 65.4 0 M0 65.4 C0 21.8, 21.8 0, 65.4 0" stroke="#a61e4d" stroke-width="1" fill="none"></path></g><g transform="translate(1408.118262389203 694.987098804279) rotate(0 43.449339207048524 38.12901195720582)"><text x="0" y="30.129011957205805" font-family="Helvetica, Segoe UI Emoji" font-size="31.92196349905603px" fill="#000000" text-anchor="start" style="white-space: pre;" direction="ltr">HTML</text><text x="0" y="68.25802391441161" font-family="Helvetica, Segoe UI Emoji" font-size="31.92196349905603px" fill="#000000" text-anchor="start" style="white-space: pre;" direction="ltr"></text></g><g stroke-linecap="round" transform="translate(1283.313878080414 355.8809523809521) rotate(0 403.07578284231977 347.61904761904754)"><path d="M173.81 0 M173.81 0 C316.35 0, 458.9 0, 632.34 0 M173.81 0 C325.3 0, 476.79 0, 632.34 0 M632.34 0 C748.22 0, 806.15 57.94, 806.15 173.81 M632.34 0 C748.22 0, 806.15 57.94, 806.15 173.81 M806.15 173.81 C806.15 293.15, 806.15 412.5, 806.15 521.43 M806.15 173.81 C806.15 275.11, 806.15 376.41, 806.15 521.43 M806.15 521.43 C806.15 637.3, 748.22 695.24, 632.34 695.24 M806.15 521.43 C806.15 637.3, 748.22 695.24, 632.34 695.24 M632.34 695.24 C509 695.24, 385.66 695.24, 173.81 695.24 M632.34 695.24 C540.21 695.24, 448.08 695.24, 173.81 695.24 M173.81 695.24 C57.94 695.24, 0 637.3, 0 521.43 M173.81 695.24 C57.94 695.24, 0 637.3, 0 521.43 M0 521.43 C0 403.88, 0 286.33, 0 173.81 M0 521.43 C0 399.99, 0 278.56, 0 173.81 M0 173.81 C0 57.94, 57.94 0, 173.81 0 M0 173.81 C0 57.94, 57.94 0, 173.81 0" stroke="#000000" stroke-width="1" fill="none"></path></g><g stroke-linecap="round" transform="translate(29.857142857138342 527.8809523809523) rotate(0 134.040276903713 206.28571428571422)"><path d="M12.56 21.52 C12.56 21.52, 12.56 21.52, 12.56 21.52 M12.56 21.52 C12.56 21.52, 12.56 21.52, 12.56 21.52 M7.7 33.2 C14.44 25.45, 21.18 17.7, 27.39 10.56 M7.7 33.2 C13.31 26.75, 18.92 20.29, 27.39 10.56 M2.85 44.88 C11.23 35.24, 19.6 25.61, 38.28 4.12 M2.85 44.88 C12.51 33.77, 22.17 22.66, 38.28 4.12 M1.93 52.03 C11.8 40.68, 21.66 29.34, 44.58 2.97 M1.93 52.03 C13.91 38.26, 25.88 24.48, 44.58 2.97 M1.67 58.43 C13.11 45.27, 24.55 32.11, 51.53 1.07 M1.67 58.43 C12.06 46.47, 22.46 34.52, 51.53 1.07 M0.75 65.58 C16.84 47.07, 32.93 28.56, 57.17 0.68 M0.75 65.58 C13.05 51.44, 25.34 37.3, 57.17 0.68 M2.46 69.71 C22.02 47.22, 41.58 24.72, 62.82 0.28 M2.46 69.71 C21.55 47.75, 40.64 25.8, 62.82 0.28 M2.85 75.36 C19.81 55.85, 36.77 36.34, 67.8 0.64 M2.85 75.36 C24.72 50.2, 46.59 25.05, 67.8 0.64 M2.59 81.76 C25.04 55.94, 47.48 30.12, 72.79 1 M2.59 81.76 C25.02 55.96, 47.44 30.16, 72.79 1 M2.99 87.4 C29.44 56.97, 55.89 26.55, 78.43 0.61 M2.99 87.4 C25.12 61.94, 47.25 36.48, 78.43 0.61 M2.73 93.8 C30.98 61.29, 59.24 28.79, 83.42 0.97 M2.73 93.8 C23.45 69.95, 44.18 46.11, 83.42 0.97 M2.47 100.19 C35.34 62.38, 68.21 24.56, 89.06 0.57 M2.47 100.19 C33.6 64.38, 64.74 28.56, 89.06 0.57 M2.86 105.84 C28.71 76.1, 54.56 46.37, 94.05 0.93 M2.86 105.84 C28.67 76.14, 54.49 46.45, 94.05 0.93 M2.6 112.23 C22.84 88.95, 43.08 65.67, 99.7 0.54 M2.6 112.23 C24.22 87.37, 45.84 62.5, 99.7 0.54 M2.99 117.88 C35.75 80.19, 68.51 42.51, 104.68 0.9 M2.99 117.88 C30.27 86.5, 57.54 55.13, 104.68 0.9 M2.73 124.28 C38.43 83.21, 74.13 42.14, 110.33 0.5 M2.73 124.28 C44.23 76.54, 85.72 28.81, 110.33 0.5 M2.47 130.67 C25.38 104.32, 48.29 77.96, 115.31 0.86 M2.47 130.67 C47.39 78.99, 92.32 27.32, 115.31 0.86 M2.86 136.32 C35.78 98.46, 68.69 60.6, 120.96 0.47 M2.86 136.32 C46.22 86.44, 89.58 36.56, 120.96 0.47 M2.6 142.71 C51.62 86.33, 100.64 29.94, 125.94 0.83 M2.6 142.71 C48.75 89.63, 94.9 36.54, 125.94 0.83 M3 148.36 C30.33 116.91, 57.67 85.47, 131.59 0.43 M3 148.36 C41.75 103.77, 80.51 59.19, 131.59 0.43 M2.74 154.76 C44.34 106.89, 85.95 59.03, 136.57 0.79 M2.74 154.76 C31.3 121.9, 59.86 89.04, 136.57 0.79 M2.47 161.15 C48.76 107.9, 95.05 54.65, 142.22 0.4 M2.47 161.15 C49.74 106.78, 97 52.41, 142.22 0.4 M2.87 166.8 C43.78 119.73, 84.69 72.67, 147.2 0.76 M2.87 166.8 C38.74 125.53, 74.62 84.26, 147.2 0.76 M2.61 173.19 C42.7 127.07, 82.8 80.94, 152.85 0.37 M2.61 173.19 C39.13 131.18, 75.65 89.17, 152.85 0.37 M3 178.84 C63.3 109.47, 123.59 40.11, 157.83 0.73 M3 178.84 C53.76 120.45, 104.52 62.06, 157.83 0.73 M2.74 185.23 C48.72 132.34, 94.7 79.45, 163.48 0.33 M2.74 185.23 C66.57 111.8, 130.41 38.37, 163.48 0.33 M2.48 191.63 C41.92 146.26, 81.36 100.89, 168.46 0.69 M2.48 191.63 C38.19 150.55, 73.91 109.46, 168.46 0.69 M2.87 197.28 C52.47 140.22, 102.07 83.17, 174.11 0.3 M2.87 197.28 C70.86 119.06, 138.85 40.85, 174.11 0.3 M2.61 203.67 C68.1 128.34, 133.59 53, 179.09 0.66 M2.61 203.67 C71.46 124.47, 140.31 45.27, 179.09 0.66 M3.01 209.32 C41.57 164.95, 80.14 120.59, 184.08 1.02 M3.01 209.32 C49.22 156.15, 95.44 102.99, 184.08 1.02 M2.75 215.71 C52.73 158.21, 102.72 100.71, 189.72 0.62 M2.75 215.71 C49.09 162.4, 95.44 109.08, 189.72 0.62 M2.48 222.11 C45.88 172.19, 89.28 122.27, 194.71 0.98 M2.48 222.11 C79.3 133.75, 156.12 45.38, 194.71 0.98 M2.88 227.75 C69.68 150.91, 136.47 74.07, 200.35 0.59 M2.88 227.75 C61.96 159.79, 121.04 91.82, 200.35 0.59 M2.62 234.15 C69.49 157.23, 136.36 80.3, 204.03 2.46 M2.62 234.15 C57.77 170.71, 112.92 107.26, 204.03 2.46 M3.01 239.8 C71.01 161.58, 139 83.36, 209.01 2.82 M3.01 239.8 C79.33 152, 155.66 64.2, 209.01 2.82 M2.75 246.19 C80.95 156.24, 159.15 66.28, 214 3.18 M2.75 246.19 C73.96 164.27, 145.18 82.35, 214 3.18 M2.49 252.59 C72.5 172.05, 142.52 91.51, 218.99 3.54 M2.49 252.59 C46.62 201.83, 90.74 151.07, 218.99 3.54 M2.88 258.23 C49.98 204.05, 97.08 149.87, 223.98 3.9 M2.88 258.23 C61.31 191.02, 119.74 123.8, 223.98 3.9 M2.62 264.63 C77.82 178.12, 153.03 91.61, 228.31 5.01 M2.62 264.63 C60.59 197.95, 118.55 131.27, 228.31 5.01 M3.02 270.28 C87.47 173.13, 171.91 75.98, 232.64 6.13 M3.02 270.28 C82.43 178.92, 161.84 87.57, 232.64 6.13 M2.76 276.67 C74.9 193.68, 147.05 110.68, 236.31 8 M2.76 276.67 C73.49 195.3, 144.22 113.94, 236.31 8 M2.49 283.07 C91.78 180.36, 181.07 77.64, 239.99 9.87 M2.49 283.07 C70.87 204.42, 139.24 125.76, 239.99 9.87 M2.89 288.71 C83.57 195.9, 164.26 103.08, 244.32 10.98 M2.89 288.71 C58.6 224.63, 114.31 160.54, 244.32 10.98 M2.63 295.11 C54.88 235.01, 107.13 174.9, 247.34 13.61 M2.63 295.11 C54.55 235.38, 106.47 175.66, 247.34 13.61 M3.02 300.75 C59.22 236.11, 115.42 171.46, 250.36 16.23 M3.02 300.75 C63.65 231.02, 124.27 161.28, 250.36 16.23 M2.76 307.15 C75.62 223.33, 148.49 139.51, 253.38 18.85 M2.76 307.15 C66.92 233.34, 131.08 159.54, 253.38 18.85 M2.5 313.55 C88.71 214.38, 174.92 115.2, 255.74 22.23 M2.5 313.55 C69.88 236.04, 137.25 158.53, 255.74 22.23 M2.89 319.19 C67.28 245.12, 131.67 171.05, 258.1 25.61 M2.89 319.19 C97.93 209.86, 192.98 100.53, 258.1 25.61 M2.63 325.59 C95.64 218.6, 188.65 111.6, 260.46 28.99 M2.63 325.59 C87.57 227.89, 172.5 130.18, 260.46 28.99 M3.03 331.23 C101.04 218.48, 199.06 105.73, 262.83 32.37 M3.03 331.23 C88.75 232.62, 174.47 134.01, 262.83 32.37 M2.77 337.63 C83.54 244.71, 164.32 151.79, 263.88 37.26 M2.77 337.63 C103.71 221.51, 204.65 105.39, 263.88 37.26 M0.54 346.29 C101.01 230.71, 201.48 115.14, 265.58 41.39 M0.54 346.29 C83.46 250.89, 166.39 155.5, 265.58 41.39 M0.93 351.94 C92 247.17, 183.07 142.41, 267.29 45.53 M0.93 351.94 C82.07 258.6, 163.21 165.26, 267.29 45.53 M1.32 357.58 C55.93 294.77, 110.53 231.96, 267.03 51.92 M1.32 357.58 C86.63 259.45, 171.93 161.32, 267.03 51.92 M2.38 362.47 C94.71 256.25, 187.05 150.03, 267.42 57.57 M2.38 362.47 C72.92 281.31, 143.47 200.16, 267.42 57.57 M2.77 368.11 C66.04 295.32, 129.32 222.53, 267.82 63.21 M2.77 368.11 C100.82 255.32, 198.87 142.53, 267.82 63.21 M3.82 373 C97.42 265.33, 191.02 157.66, 268.87 68.1 M3.82 373 C101.76 260.33, 199.71 147.66, 268.87 68.1 M5.53 377.13 C83.41 287.54, 161.3 197.94, 269.26 73.74 M5.53 377.13 C82.18 288.96, 158.83 200.79, 269.26 73.74 M7.23 381.27 C89.67 286.44, 172.11 191.6, 269 80.14 M7.23 381.27 C67.08 312.42, 126.92 243.58, 269 80.14 M9.6 384.65 C68.22 317.21, 126.84 249.78, 268.74 86.54 M9.6 384.65 C95.08 286.31, 180.56 187.97, 268.74 86.54 M11.3 388.78 C95.58 291.84, 179.85 194.89, 269.13 92.18 M11.3 388.78 C107.47 278.15, 203.64 167.53, 269.13 92.18 M13.67 392.16 C94.48 299.19, 175.3 206.22, 268.87 98.58 M13.67 392.16 C102.99 289.4, 192.32 186.64, 268.87 98.58 M16.69 394.78 C71.35 331.9, 126.01 269.02, 269.27 104.22 M16.69 394.78 C79.27 322.79, 141.85 250.79, 269.27 104.22 M19.05 398.16 C90.64 315.8, 162.23 233.45, 269.01 110.62 M19.05 398.16 C76.3 332.3, 133.55 266.45, 269.01 110.62 M22.07 400.79 C107.29 302.75, 192.51 204.72, 268.75 117.02 M22.07 400.79 C74.81 340.12, 127.55 279.45, 268.75 117.02 M25.74 402.66 C96.2 321.6, 166.66 240.55, 269.14 122.66 M25.74 402.66 C89.16 329.71, 152.57 256.75, 269.14 122.66 M29.42 404.53 C79.77 346.6, 130.12 288.68, 268.88 129.06 M29.42 404.53 C112.62 308.81, 195.83 213.09, 268.88 129.06 M32.44 407.15 C106.87 321.52, 181.31 235.89, 269.27 134.7 M32.44 407.15 C116.22 310.77, 200 214.39, 269.27 134.7 M36.77 408.26 C92.83 343.77, 148.9 279.27, 269.01 141.1 M36.77 408.26 C92.69 343.93, 148.62 279.59, 269.01 141.1 M41.1 409.38 C128.44 308.91, 215.78 208.43, 268.75 147.49 M41.1 409.38 C94.26 348.22, 147.43 287.06, 268.75 147.49 M44.77 411.25 C90.53 358.62, 136.28 305.98, 269.14 153.14 M44.77 411.25 C89.99 359.24, 135.2 307.22, 269.14 153.14 M49.76 411.61 C127.49 322.19, 205.23 232.76, 268.88 159.54 M49.76 411.61 C102.43 351.02, 155.09 290.44, 268.88 159.54 M53.43 413.48 C139.15 314.87, 224.87 216.27, 269.28 165.18 M53.43 413.48 C108.01 350.69, 162.59 287.91, 269.28 165.18 M58.42 413.84 C125.63 336.53, 192.83 259.21, 269.02 171.58 M58.42 413.84 C127.98 333.81, 197.55 253.79, 269.02 171.58 M63.41 414.2 C115.73 354.02, 168.04 293.83, 268.75 177.97 M63.41 414.2 C131.94 335.36, 200.48 256.52, 268.75 177.97 M69.05 413.8 C109.61 367.14, 150.18 320.48, 269.15 183.62 M69.05 413.8 C124.11 350.47, 179.17 287.13, 269.15 183.62 M74.04 414.16 C141.26 336.83, 208.48 259.51, 268.89 190.02 M74.04 414.16 C132.25 347.2, 190.46 280.23, 268.89 190.02 M79.68 413.77 C148.8 334.26, 217.92 254.75, 268.63 196.41 M79.68 413.77 C129.23 356.77, 178.78 299.78, 268.63 196.41 M84.67 414.13 C152.93 335.61, 221.19 257.08, 269.02 202.06 M84.67 414.13 C143.3 346.69, 201.92 279.25, 269.02 202.06 M90.31 413.73 C126.55 372.04, 162.8 330.35, 268.76 208.45 M90.31 413.73 C142.87 353.28, 195.42 292.82, 268.76 208.45 M95.3 414.1 C159.18 340.6, 223.07 267.11, 269.15 214.1 M95.3 414.1 C143.51 358.63, 191.73 303.16, 269.15 214.1 M100.29 414.46 C158.22 347.8, 216.16 281.15, 268.89 220.49 M100.29 414.46 C166.14 338.7, 232 262.94, 268.89 220.49 M105.93 414.06 C156.01 356.45, 206.09 298.84, 268.63 226.89 M105.93 414.06 C167.45 343.29, 228.97 272.52, 268.63 226.89 M110.92 414.42 C150.58 368.8, 190.23 323.17, 269.03 232.54 M110.92 414.42 C171.74 344.45, 232.57 274.47, 269.03 232.54 M116.56 414.03 C161.75 362.03, 206.95 310.04, 268.76 238.93 M116.56 414.03 C167.92 354.95, 219.27 295.87, 268.76 238.93 M121.55 414.39 C154.39 376.6, 187.24 338.82, 269.16 244.58 M121.55 414.39 C169.78 358.9, 218 303.42, 269.16 244.58 M127.19 413.99 C180.31 352.89, 233.42 291.78, 268.9 250.97 M127.19 413.99 C182.16 350.76, 237.12 287.53, 268.9 250.97 M132.18 414.35 C185.51 353, 238.84 291.64, 268.64 257.37 M132.18 414.35 C170.67 370.07, 209.17 325.78, 268.64 257.37 M137.82 413.96 C179.26 366.28, 220.71 318.6, 269.03 263.02 M137.82 413.96 C174.27 372.02, 210.73 330.08, 269.03 263.02 M142.81 414.32 C183.41 367.6, 224.02 320.89, 268.77 269.41 M142.81 414.32 C184.62 366.21, 226.44 318.11, 268.77 269.41 M148.45 413.92 C176.06 382.16, 203.68 350.39, 269.16 275.06 M148.45 413.92 C181.18 376.27, 213.92 338.61, 269.16 275.06 M153.44 414.28 C178.61 385.32, 203.79 356.36, 268.9 281.45 M153.44 414.28 C196.51 364.73, 239.58 315.18, 268.9 281.45 M159.08 413.89 C198.15 368.94, 237.23 323.99, 268.64 287.85 M159.08 413.89 C197.14 370.1, 235.21 326.31, 268.64 287.85 M164.07 414.25 C196.94 376.44, 229.81 338.62, 269.04 293.49 M164.07 414.25 C197.41 375.89, 230.75 337.53, 269.04 293.49 M169.71 413.85 C197.15 382.29, 224.59 350.72, 268.77 299.89 M169.71 413.85 C189.7 390.86, 209.69 367.86, 268.77 299.89 M174.7 414.21 C200.9 384.07, 227.1 353.93, 269.17 305.54 M174.7 414.21 C202.45 382.28, 230.21 350.35, 269.17 305.54 M180.34 413.82 C207.06 383.08, 233.78 352.34, 268.91 311.93 M180.34 413.82 C202.04 388.86, 223.74 363.89, 268.91 311.93 M185.33 414.18 C203.22 393.6, 221.11 373.02, 268.65 318.33 M185.33 414.18 C205.75 390.69, 226.17 367.19, 268.65 318.33 M190.97 413.78 C212.59 388.91, 234.22 364.03, 269.04 323.97 M190.97 413.78 C206.86 395.5, 222.75 377.22, 269.04 323.97 M195.96 414.14 C215.16 392.05, 234.36 369.96, 268.78 330.37 M195.96 414.14 C220.04 386.44, 244.13 358.73, 268.78 330.37 M202.26 413 C227.66 383.77, 253.07 354.54, 268.52 336.77 M202.26 413 C223.42 388.65, 244.59 364.3, 268.52 336.77 M207.24 413.36 C231.73 385.19, 256.22 357.02, 268.91 342.41 M207.24 413.36 C227.32 390.25, 247.41 367.15, 268.91 342.41 M211.57 414.47 C230.76 392.4, 249.94 370.33, 268.65 348.81 M211.57 414.47 C231.57 391.47, 251.56 368.47, 268.65 348.81 M217.87 413.32 C229.23 400.25, 240.59 387.18, 269.05 354.45 M217.87 413.32 C229.14 400.36, 240.41 387.39, 269.05 354.45 M224.83 411.42 C241.47 392.27, 258.11 373.13, 268.13 361.61 M224.83 411.42 C240.83 393.01, 256.82 374.61, 268.13 361.61 M232.44 408.76 C245.41 393.84, 258.37 378.93, 266.55 369.51 M232.44 408.76 C239.96 400.1, 247.49 391.44, 266.55 369.51 M238.74 407.61 C245.9 399.37, 253.06 391.13, 261.7 381.19 M238.74 407.61 C247.14 397.94, 255.54 388.28, 261.7 381.19" stroke="#fab005" stroke-width="0.5" fill="none"></path><path d="M67.02 0 M67.02 0 C113.56 0, 160.09 0, 201.06 0 M67.02 0 C113.73 0, 160.45 0, 201.06 0 M201.06 0 C245.74 0, 268.08 22.34, 268.08 67.02 M201.06 0 C245.74 0, 268.08 22.34, 268.08 67.02 M268.08 67.02 C268.08 161.04, 268.08 255.06, 268.08 345.55 M268.08 67.02 C268.08 140.84, 268.08 214.66, 268.08 345.55 M268.08 345.55 C268.08 390.23, 245.74 412.57, 201.06 412.57 M268.08 345.55 C268.08 390.23, 245.74 412.57, 201.06 412.57 M201.06 412.57 C170.34 412.57, 139.63 412.57, 67.02 412.57 M201.06 412.57 C165.63 412.57, 130.2 412.57, 67.02 412.57 M67.02 412.57 C22.34 412.57, 0 390.23, 0 345.55 M67.02 412.57 C22.34 412.57, 0 390.23, 0 345.55 M0 345.55 C0 234.3, 0 123.05, 0 67.02 M0 345.55 C0 254.96, 0 164.36, 0 67.02 M0 67.02 C0 22.34, 22.34 0, 67.02 0 M0 67.02 C0 22.34, 22.34 0, 67.02 0" stroke="#364fc7" stroke-width="1" fill="none"></path></g><g transform="translate(122.28975995683982 713.9145764032485) rotate(0 44.07426054122084 39.07614852108247)"><text x="0" y="31.076148521082445" font-family="Helvetica, Segoe UI Emoji" font-size="32.71491504090623px" fill="#000000" text-anchor="start" style="white-space: pre;" direction="ltr">PAGE</text><text x="0" y="70.15229704216489" font-family="Helvetica, Segoe UI Emoji" font-size="32.71491504090623px" fill="#000000" text-anchor="start" style="white-space: pre;" direction="ltr"></text></g><g stroke-linecap="round" transform="translate(509.89626599539065 532.6428571428564) rotate(0 134.96853366897426 207.71428571428578)"><path d="M12.68 21.62 C12.68 21.62, 12.68 21.62, 12.68 21.62 M12.68 21.62 C12.68 21.62, 12.68 21.62, 12.68 21.62 M7.83 33.3 C13.78 26.46, 19.73 19.61, 23.57 15.19 M7.83 33.3 C13.29 27.02, 18.75 20.74, 23.57 15.19 M6.91 40.46 C16.95 28.91, 26.99 17.35, 38.4 4.23 M6.91 40.46 C18.24 27.43, 29.56 14.4, 38.4 4.23 M2.06 52.14 C11.14 41.69, 20.21 31.25, 44.7 3.08 M2.06 52.14 C14.89 37.38, 27.72 22.61, 44.7 3.08 M1.14 59.29 C16.26 41.89, 31.39 24.49, 51.65 1.18 M1.14 59.29 C15.9 42.31, 30.66 25.33, 51.65 1.18 M0.88 65.69 C17.86 46.15, 34.85 26.61, 57.3 0.78 M0.88 65.69 C17.07 47.06, 33.27 28.43, 57.3 0.78 M2.58 69.82 C23.27 46.03, 43.95 22.24, 62.94 0.39 M2.58 69.82 C17.83 52.29, 33.07 34.75, 62.94 0.39 M2.32 76.22 C20.03 55.85, 37.74 35.47, 67.93 0.75 M2.32 76.22 C25.31 49.77, 48.31 23.32, 67.93 0.75 M2.72 81.86 C28.81 51.84, 54.91 21.82, 73.57 0.35 M2.72 81.86 C25.29 55.89, 47.87 29.92, 73.57 0.35 M2.46 88.26 C23.88 63.62, 45.3 38.97, 78.56 0.71 M2.46 88.26 C21.63 66.2, 40.81 44.14, 78.56 0.71 M2.85 93.9 C29.73 62.98, 56.61 32.06, 84.2 0.32 M2.85 93.9 C34.09 57.96, 65.34 22.02, 84.2 0.32 M2.59 100.3 C22.67 77.2, 42.75 54.1, 89.19 0.68 M2.59 100.3 C25.8 73.6, 49.01 46.9, 89.19 0.68 M2.33 106.7 C22.44 83.57, 42.54 60.43, 94.83 0.28 M2.33 106.7 C35.45 68.59, 68.57 30.49, 94.83 0.28 M2.72 112.34 C36.88 73.05, 71.03 33.76, 99.82 0.64 M2.72 112.34 C40.65 68.71, 78.58 25.08, 99.82 0.64 M2.46 118.74 C28.42 88.88, 54.38 59.01, 105.46 0.25 M2.46 118.74 C40.11 75.43, 77.76 32.11, 105.46 0.25 M2.85 124.38 C25.03 98.87, 47.2 73.36, 110.45 0.61 M2.85 124.38 C38.09 83.85, 73.32 43.33, 110.45 0.61 M2.59 130.78 C35.68 92.72, 68.77 54.65, 116.09 0.22 M2.59 130.78 C41.97 85.49, 81.34 40.19, 116.09 0.22 M2.33 137.18 C37.28 96.98, 72.22 56.78, 121.08 0.58 M2.33 137.18 C38.17 95.95, 74 54.73, 121.08 0.58 M2.73 142.82 C30.93 110.38, 59.13 77.94, 126.72 0.18 M2.73 142.82 C34.76 105.97, 66.79 69.13, 126.72 0.18 M2.46 149.22 C34.78 112.05, 67.09 74.87, 131.71 0.54 M2.46 149.22 C35.11 111.67, 67.75 74.12, 131.71 0.54 M2.86 154.86 C54.48 95.48, 106.1 36.1, 136.7 0.9 M2.86 154.86 C39.19 113.07, 75.53 71.27, 136.7 0.9 M2.6 161.26 C36.34 122.44, 70.08 83.63, 142.34 0.51 M2.6 161.26 C35.34 123.6, 68.08 85.93, 142.34 0.51 M2.34 167.66 C49.69 113.19, 97.03 58.72, 147.33 0.87 M2.34 167.66 C56.52 105.32, 110.71 42.99, 147.33 0.87 M2.73 173.3 C58.48 109.17, 114.23 45.03, 152.97 0.47 M2.73 173.3 C35.36 135.77, 67.99 98.23, 152.97 0.47 M2.47 179.7 C40.53 135.92, 78.58 92.14, 157.96 0.83 M2.47 179.7 C59.7 113.86, 116.93 48.03, 157.96 0.83 M2.86 185.34 C47.19 134.36, 91.51 83.37, 163.6 0.44 M2.86 185.34 C48.99 132.28, 95.12 79.21, 163.6 0.44 M2.6 191.74 C63.91 121.22, 125.21 50.7, 168.59 0.8 M2.6 191.74 C47.93 139.6, 93.26 87.45, 168.59 0.8 M2.34 198.14 C58.5 133.54, 114.65 68.94, 174.23 0.4 M2.34 198.14 C44.48 149.66, 86.62 101.19, 174.23 0.4 M2.74 203.78 C66.92 129.95, 131.1 56.11, 179.22 0.76 M2.74 203.78 C59.74 138.2, 116.75 72.62, 179.22 0.76 M2.47 210.18 C44.34 162.02, 86.21 113.86, 184.86 0.37 M2.47 210.18 C40.54 166.39, 78.6 122.6, 184.86 0.37 M2.87 215.82 C63.76 145.78, 124.65 75.73, 189.85 0.73 M2.87 215.82 C71.62 136.73, 140.38 57.63, 189.85 0.73 M2.61 222.22 C45.87 172.45, 89.13 122.69, 195.49 0.33 M2.61 222.22 C43.17 175.56, 83.73 128.89, 195.49 0.33 M2.35 228.62 C79.1 140.32, 155.85 52.03, 200.48 0.69 M2.35 228.62 C56.37 166.47, 110.39 104.32, 200.48 0.69 M2.74 234.26 C60.39 167.95, 118.03 101.63, 204.81 1.81 M2.74 234.26 C83.21 141.69, 163.69 49.11, 204.81 1.81 M2.48 240.66 C67.88 165.43, 133.28 90.19, 209.79 2.17 M2.48 240.66 C68.6 164.59, 134.73 88.52, 209.79 2.17 M2.87 246.3 C70.95 167.98, 139.03 89.67, 214.78 2.53 M2.87 246.3 C52.98 188.66, 103.09 131.02, 214.78 2.53 M2.61 252.7 C70.1 175.06, 137.59 97.43, 219.77 2.89 M2.61 252.7 C46.77 201.9, 90.92 151.11, 219.77 2.89 M2.35 259.1 C86.08 162.77, 169.82 66.45, 225.41 2.5 M2.35 259.1 C70.26 180.97, 138.18 102.85, 225.41 2.5 M2.75 264.74 C50.11 210.25, 97.47 155.77, 229.74 3.61 M2.75 264.74 C56.8 202.55, 110.86 140.37, 229.74 3.61 M2.48 271.14 C54.46 211.34, 106.44 151.55, 233.42 5.48 M2.48 271.14 C71.17 192.12, 139.86 113.11, 233.42 5.48 M2.88 276.78 C68.36 201.46, 133.83 126.14, 237.75 6.59 M2.88 276.78 C85.4 181.85, 167.92 86.92, 237.75 6.59 M2.62 283.18 C93.65 178.46, 184.69 73.73, 240.77 9.22 M2.62 283.18 C56.48 221.22, 110.34 159.26, 240.77 9.22 M2.36 289.58 C56.87 226.86, 111.39 164.15, 244.44 11.09 M2.36 289.58 C71.73 209.77, 141.11 129.96, 244.44 11.09 M2.75 295.22 C74.68 212.48, 146.6 129.74, 248.12 12.96 M2.75 295.22 C56.01 233.95, 109.27 172.68, 248.12 12.96 M2.49 301.62 C98.55 191.12, 194.6 80.62, 251.14 15.58 M2.49 301.62 C52.98 243.54, 103.46 185.46, 251.14 15.58 M2.88 307.26 C87.9 209.46, 172.91 111.66, 254.15 18.21 M2.88 307.26 C81.33 217.02, 159.77 126.78, 254.15 18.21 M2.62 313.66 C87.89 215.57, 173.15 117.48, 257.17 20.83 M2.62 313.66 C72.78 232.95, 142.94 152.24, 257.17 20.83 M2.36 320.06 C62.4 250.99, 122.43 181.93, 260.19 23.45 M2.36 320.06 C71.77 240.21, 141.17 160.37, 260.19 23.45 M2.76 325.7 C74.88 242.73, 147 159.76, 261.9 27.59 M2.76 325.7 C79.14 237.83, 155.52 149.96, 261.9 27.59 M2.49 332.1 C61.52 264.2, 120.54 196.3, 263.61 31.72 M2.49 332.1 C96.85 223.55, 191.21 115.01, 263.61 31.72 M2.89 337.74 C70.57 259.88, 138.25 182.02, 265.31 35.86 M2.89 337.74 C72.84 257.27, 142.79 176.8, 265.31 35.86 M2.63 344.14 C82.58 252.16, 162.53 160.19, 267.67 39.23 M2.63 344.14 C102.72 229, 202.8 113.86, 267.67 39.23 M2.37 350.53 C95.51 243.39, 188.65 136.24, 268.73 44.12 M2.37 350.53 C59.04 285.34, 115.72 220.14, 268.73 44.12 M1.45 357.69 C102.82 241.07, 204.2 124.45, 269.78 49.01 M1.45 357.69 C61.16 289, 120.86 220.32, 269.78 49.01 M2.5 362.58 C73.32 281.1, 144.15 199.63, 270.83 53.9 M2.5 362.58 C101.99 248.13, 201.47 133.68, 270.83 53.9 M2.89 368.22 C85.26 273.47, 167.63 178.71, 271.22 59.54 M2.89 368.22 C87.74 270.61, 172.59 173.01, 271.22 59.54 M4.6 372.35 C96.82 266.27, 189.03 160.19, 271.62 65.19 M4.6 372.35 C109.67 251.49, 214.73 130.62, 271.62 65.19 M5.65 377.24 C79.35 292.46, 153.06 207.67, 272.67 70.07 M5.65 377.24 C110.98 256.07, 216.31 134.9, 272.67 70.07 M7.36 381.37 C106.46 267.37, 205.57 153.36, 273.06 75.72 M7.36 381.37 C100.23 274.54, 193.11 167.7, 273.06 75.72 M9.06 385.51 C63.45 322.95, 117.83 260.38, 272.8 82.11 M9.06 385.51 C90.49 291.84, 171.92 198.16, 272.8 82.11 M11.43 388.89 C105.5 280.67, 199.56 172.46, 272.54 88.51 M11.43 388.89 C95.81 291.82, 180.19 194.75, 272.54 88.51 M13.13 393.02 C104.88 287.48, 196.62 181.94, 272.93 94.16 M13.13 393.02 C71.87 325.46, 130.6 257.89, 272.93 94.16 M15.5 396.4 C106.79 291.38, 198.08 186.37, 272.67 100.55 M15.5 396.4 C70.59 333.02, 125.68 269.65, 272.67 100.55 M17.86 399.78 C96.16 309.71, 174.45 219.64, 273.07 106.2 M17.86 399.78 C76.33 332.52, 134.79 265.26, 273.07 106.2 M20.88 402.4 C81.17 333.05, 141.45 263.7, 272.8 112.59 M20.88 402.4 C106.07 304.4, 191.27 206.39, 272.8 112.59 M24.55 404.27 C121.66 292.57, 218.76 180.86, 272.54 118.99 M24.55 404.27 C102.95 314.09, 181.35 223.9, 272.54 118.99 M27.57 406.9 C108.5 313.8, 189.42 220.71, 272.94 124.64 M27.57 406.9 C83.06 343.07, 138.54 279.24, 272.94 124.64 M31.25 408.77 C95.51 334.84, 159.77 260.92, 272.68 131.03 M31.25 408.77 C79.79 352.92, 128.34 297.08, 272.68 131.03 M34.92 410.64 C124.55 307.52, 214.19 204.41, 272.42 137.43 M34.92 410.64 C88.32 349.21, 141.71 287.79, 272.42 137.43 M39.25 411.75 C114.86 324.77, 190.47 237.8, 272.81 143.07 M39.25 411.75 C112.47 327.53, 185.68 243.3, 272.81 143.07 M43.58 412.87 C127.71 316.09, 211.84 219.31, 272.55 149.47 M43.58 412.87 C111.49 334.74, 179.41 256.62, 272.55 149.47 M47.91 413.98 C113.56 338.46, 179.21 262.94, 272.94 155.11 M47.91 413.98 C137.59 310.82, 227.26 207.66, 272.94 155.11 M52.25 415.09 C122.68 334.07, 193.11 253.05, 272.68 161.51 M52.25 415.09 C100.62 359.45, 148.99 303.8, 272.68 161.51 M57.23 415.46 C107.17 358.01, 157.1 300.57, 272.42 167.91 M57.23 415.46 C125.43 337, 193.64 258.54, 272.42 167.91 M62.22 415.82 C122.82 346.11, 183.41 276.4, 272.81 173.55 M62.22 415.82 C143.71 322.07, 225.2 228.32, 272.81 173.55 M67.86 415.42 C137.64 335.15, 207.42 254.87, 272.55 179.95 M67.86 415.42 C118.06 357.68, 168.25 299.94, 272.55 179.95 M72.85 415.78 C144.99 332.79, 217.13 249.81, 272.95 185.59 M72.85 415.78 C114.54 367.82, 156.24 319.85, 272.95 185.59 M78.49 415.39 C146.25 337.43, 214.02 259.48, 272.69 191.99 M78.49 415.39 C131.96 353.87, 185.44 292.36, 272.69 191.99 M83.48 415.75 C132.73 359.09, 181.99 302.43, 272.42 198.39 M83.48 415.75 C141.78 348.68, 200.07 281.62, 272.42 198.39 M89.12 415.35 C148.11 347.49, 207.1 279.63, 272.82 204.03 M89.12 415.35 C128.62 369.91, 168.12 324.47, 272.82 204.03 M94.11 415.71 C155.74 344.81, 217.37 273.92, 272.56 210.43 M94.11 415.71 C152.63 348.39, 211.15 281.08, 272.56 210.43 M99.75 415.32 C144.24 364.14, 188.72 312.97, 272.95 216.07 M99.75 415.32 C166.87 338.1, 234 260.89, 272.95 216.07 M104.74 415.68 C139.36 375.85, 173.99 336.02, 272.69 222.47 M104.74 415.68 C158.93 353.34, 213.12 291, 272.69 222.47 M110.38 415.28 C157.35 361.26, 204.31 307.23, 272.43 228.87 M110.38 415.28 C147.94 372.07, 185.51 328.86, 272.43 228.87 M115.37 415.64 C157.72 366.93, 200.07 318.21, 272.82 234.51 M115.37 415.64 C172.75 349.63, 230.14 283.62, 272.82 234.51 M121.01 415.25 C164.68 365.01, 208.35 314.77, 272.56 240.91 M121.01 415.25 C166.83 362.54, 212.65 309.83, 272.56 240.91 M126 415.61 C183.66 349.28, 241.31 282.96, 272.3 247.31 M126 415.61 C175.84 358.28, 225.68 300.94, 272.3 247.31 M130.99 415.97 C167.03 374.5, 203.08 333.03, 272.7 252.95 M130.99 415.97 C169.15 372.06, 207.32 328.16, 272.7 252.95 M136.63 415.57 C174.14 372.42, 211.66 329.26, 272.43 259.35 M136.63 415.57 C184.74 360.23, 232.85 304.89, 272.43 259.35 M141.62 415.93 C184.3 366.83, 226.99 317.72, 272.83 264.99 M141.62 415.93 C183.42 367.85, 225.21 319.77, 272.83 264.99 M147.26 415.54 C177.89 380.31, 208.52 345.07, 272.57 271.39 M147.26 415.54 C187.84 368.86, 228.42 322.17, 272.57 271.39 M152.25 415.9 C196.94 364.49, 241.63 313.08, 272.31 277.79 M152.25 415.9 C194.44 367.36, 236.64 318.82, 272.31 277.79 M157.89 415.5 C187.98 380.89, 218.07 346.27, 272.7 283.43 M157.89 415.5 C201.94 364.83, 245.99 314.16, 272.7 283.43 M162.88 415.86 C184.87 390.56, 206.87 365.26, 272.44 289.83 M162.88 415.86 C205.06 367.34, 247.25 318.81, 272.44 289.83 M168.52 415.47 C202.64 376.22, 236.76 336.97, 272.83 295.47 M168.52 415.47 C198.1 381.44, 227.68 347.41, 272.83 295.47 M173.51 415.83 C208.26 375.85, 243.02 335.87, 272.57 301.87 M173.51 415.83 C208.38 375.72, 243.25 335.6, 272.57 301.87 M179.15 415.44 C204.44 386.34, 229.74 357.24, 272.31 308.27 M179.15 415.44 C215.39 373.74, 251.63 332.05, 272.31 308.27 M184.14 415.8 C210.43 385.55, 236.72 355.3, 272.71 313.91 M184.14 415.8 C210.76 385.17, 237.39 354.54, 272.71 313.91 M189.78 415.4 C219.7 380.98, 249.62 346.57, 272.44 320.31 M189.78 415.4 C213.02 388.67, 236.26 361.93, 272.44 320.31 M194.77 415.76 C214.1 393.53, 233.43 371.29, 272.84 325.95 M194.77 415.76 C225.59 380.3, 256.41 344.85, 272.84 325.95 M200.41 415.37 C222.01 390.52, 243.61 365.67, 272.58 332.35 M200.41 415.37 C226.15 385.76, 251.89 356.15, 272.58 332.35 M204.09 417.24 C227.7 390.07, 251.31 362.91, 272.32 338.75 M204.09 417.24 C225.52 392.58, 246.95 367.93, 272.32 338.75 M209.73 416.84 C223.52 400.98, 237.31 385.11, 272.71 344.39 M209.73 416.84 C224.08 400.33, 238.44 383.82, 272.71 344.39 M215.37 416.45 C230.78 398.73, 246.18 381, 272.45 350.79 M215.37 416.45 C229.85 399.79, 244.33 383.13, 272.45 350.79 M220.36 416.81 C235.23 399.7, 250.09 382.6, 271.53 357.94 M220.36 416.81 C236.88 397.8, 253.41 378.79, 271.53 357.94 M227.31 414.9 C237.31 403.4, 247.31 391.91, 270.61 365.09 M227.31 414.9 C241.36 398.75, 255.4 382.59, 270.61 365.09 M234.27 413 C245.54 400.04, 256.81 387.07, 269.7 372.24 M234.27 413 C244.37 401.38, 254.48 389.75, 269.7 372.24 M248.44 402.79 C255.83 394.3, 263.21 385.8, 268.12 380.15 M248.44 402.79 C255.38 394.81, 262.32 386.83, 268.12 380.15" stroke="#fa5252" stroke-width="0.5" fill="none"></path><path d="M67.48 0 M67.48 0 C113.37 0, 159.26 0, 202.45 0 M67.48 0 C117.97 0, 168.45 0, 202.45 0 M202.45 0 C247.44 0, 269.94 22.49, 269.94 67.48 M202.45 0 C247.44 0, 269.94 22.49, 269.94 67.48 M269.94 67.48 C269.94 127.58, 269.94 187.68, 269.94 347.94 M269.94 67.48 C269.94 156.83, 269.94 246.18, 269.94 347.94 M269.94 347.94 C269.94 392.93, 247.44 415.43, 202.45 415.43 M269.94 347.94 C269.94 392.93, 247.44 415.43, 202.45 415.43 M202.45 415.43 C164.21 415.43, 125.96 415.43, 67.48 415.43 M202.45 415.43 C169.78 415.43, 137.11 415.43, 67.48 415.43 M67.48 415.43 C22.49 415.43, 0 392.93, 0 347.94 M67.48 415.43 C22.49 415.43, 0 392.93, 0 347.94 M0 347.94 C0 284.47, 0 221, 0 67.48 M0 347.94 C0 236.62, 0 125.3, 0 67.48 M0 67.48 C0 22.49, 22.49 0, 67.48 0 M0 67.48 C0 22.49, 22.49 0, 67.48 0" stroke="#a61e4d" stroke-width="1" fill="none"></path></g><g transform="translate(597.7401929935011 715.6510383889215) rotate(0 44.83700440528628 39.34675896790441)"><text x="0" y="31.346758967904357" font-family="Helvetica, Segoe UI Emoji" font-size="32.941472624292004px" fill="#000000" text-anchor="start" style="white-space: pre;" direction="ltr">HTML</text><text x="0" y="70.69351793580871" font-family="Helvetica, Segoe UI Emoji" font-size="32.941472624292004px" fill="#000000" text-anchor="start" style="white-space: pre;" direction="ltr"></text></g><g stroke-linecap="round" transform="translate(10 360.8809523809521) rotate(0 403.07578284231965 347.61904761904754)"><path d="M173.81 0 M173.81 0 C270.88 0, 367.94 0, 632.34 0 M173.81 0 C287.97 0, 402.13 0, 632.34 0 M632.34 0 C748.22 0, 806.15 57.94, 806.15 173.81 M632.34 0 C748.22 0, 806.15 57.94, 806.15 173.81 M806.15 173.81 C806.15 306.63, 806.15 439.45, 806.15 521.43 M806.15 173.81 C806.15 278.61, 806.15 383.42, 806.15 521.43 M806.15 521.43 C806.15 637.3, 748.22 695.24, 632.34 695.24 M806.15 521.43 C806.15 637.3, 748.22 695.24, 632.34 695.24 M632.34 695.24 C505.66 695.24, 378.98 695.24, 173.81 695.24 M632.34 695.24 C514.1 695.24, 395.87 695.24, 173.81 695.24 M173.81 695.24 C57.94 695.24, 0 637.3, 0 521.43 M173.81 695.24 C57.94 695.24, 0 637.3, 0 521.43 M0 521.43 C0 422.3, 0 323.17, 0 173.81 M0 521.43 C0 445.69, 0 369.95, 0 173.81 M0 173.81 C0 57.94, 57.94 0, 173.81 0 M0 173.81 C0 57.94, 57.94 0, 173.81 0" stroke="#000000" stroke-width="1" fill="none"></path></g><g transform="translate(1573.5519733185095 258.16666666666623) rotate(0 86.5 21.5)"><text x="0" y="34" font-family="Helvetica, Segoe UI Emoji" font-size="36px" fill="#000000" text-anchor="start" style="white-space: pre;" direction="ltr">SERVEUR</text></g><g stroke-linecap="round" transform="translate(1504.980544747081 202.30952380952334) rotate(0 162.1428571428571 75.71428571428578)"><path d="M37.86 0 M37.86 0 C116.64 0, 195.41 0, 286.43 0 M37.86 0 C107.77 0, 177.68 0, 286.43 0 M286.43 0 C311.67 0, 324.29 12.62, 324.29 37.86 M286.43 0 C311.67 0, 324.29 12.62, 324.29 37.86 M324.29 37.86 C324.29 53.16, 324.29 68.46, 324.29 113.57 M324.29 37.86 C324.29 60.71, 324.29 83.57, 324.29 113.57 M324.29 113.57 C324.29 138.81, 311.67 151.43, 286.43 151.43 M324.29 113.57 C324.29 138.81, 311.67 151.43, 286.43 151.43 M286.43 151.43 C230.73 151.43, 175.04 151.43, 37.86 151.43 M286.43 151.43 C190.94 151.43, 95.44 151.43, 37.86 151.43 M37.86 151.43 C12.62 151.43, 0 138.81, 0 113.57 M37.86 151.43 C12.62 151.43, 0 138.81, 0 113.57 M0 113.57 C0 86.64, 0 59.7, 0 37.86 M0 113.57 C0 96.97, 0 80.38, 0 37.86 M0 37.86 C0 12.62, 12.62 0, 37.86 0 M0 37.86 C0 12.62, 12.62 0, 37.86 0" stroke="#000000" stroke-width="1" fill="none"></path></g><g transform="translate(346.6472114137475 260.07142857142816) rotate(0 64 21.5)"><text x="0" y="34" font-family="Helvetica, Segoe UI Emoji" font-size="36px" fill="#000000" text-anchor="start" style="white-space: pre;" direction="ltr">CLIENT</text></g><g stroke-linecap="round" transform="translate(240.93292569946175 204.2142857142852) rotate(0 162.1428571428571 75.71428571428581)"><path d="M37.86 0 M37.86 0 C131.27 0, 224.68 0, 286.43 0 M37.86 0 C133.34 0, 228.83 0, 286.43 0 M286.43 0 C311.67 0, 324.29 12.62, 324.29 37.86 M286.43 0 C311.67 0, 324.29 12.62, 324.29 37.86 M324.29 37.86 C324.29 65.66, 324.29 93.46, 324.29 113.57 M324.29 37.86 C324.29 62.17, 324.29 86.49, 324.29 113.57 M324.29 113.57 C324.29 138.81, 311.67 151.43, 286.43 151.43 M324.29 113.57 C324.29 138.81, 311.67 151.43, 286.43 151.43 M286.43 151.43 C216.73 151.43, 147.03 151.43, 37.86 151.43 M286.43 151.43 C232.3 151.43, 178.18 151.43, 37.86 151.43 M37.86 151.43 C12.62 151.43, 0 138.81, 0 113.57 M37.86 151.43 C12.62 151.43, 0 138.81, 0 113.57 M0 113.57 C0 93.19, 0 72.8, 0 37.86 M0 113.57 C0 90.51, 0 67.46, 0 37.86 M0 37.86 C0 12.62, 12.62 0, 37.86 0 M0 37.86 C0 12.62, 12.62 0, 37.86 0" stroke="#000000" stroke-width="1" fill="none"></path></g><g stroke-linecap="round"><g transform="translate(614.742449508986 278.14285714285705) rotate(0 416.42857142857133 1.4285714285714448)"><path d="M0 0 C138.81 0.48, 694.05 2.38, 832.86 2.86 M0 0 C138.81 0.48, 694.05 2.38, 832.86 2.86" stroke="#000000" stroke-width="1" fill="none"></path></g><g transform="translate(614.742449508986 278.14285714285705) rotate(0 416.42857142857133 1.4285714285714448)"><path d="M804.63 13.02 C814 9.65, 823.36 6.28, 832.86 2.86 M804.63 13.02 C815.16 9.23, 825.69 5.44, 832.86 2.86" stroke="#000000" stroke-width="1" fill="none"></path></g><g transform="translate(614.742449508986 278.14285714285705) rotate(0 416.42857142857133 1.4285714285714448)"><path d="M804.7 -7.5 C814.04 -4.06, 823.38 -0.63, 832.86 2.86 M804.7 -7.5 C815.21 -3.64, 825.71 0.23, 832.86 2.86" stroke="#000000" stroke-width="1" fill="none"></path></g></g><g stroke-linecap="round"><g transform="translate(1264.7424495089865 705.2055443931745) rotate(0 -217.1428571428571 -1.3364295804302628)"><path d="M0 0 C-72.38 -0.45, -361.9 -2.23, -434.29 -2.67 M0 0 C-72.38 -0.45, -361.9 -2.23, -434.29 -2.67" stroke="#000000" stroke-width="1" fill="none"></path></g><g transform="translate(1264.7424495089865 705.2055443931745) rotate(0 -217.1428571428571 -1.3364295804302628)"><path d="M-406.03 -12.76 C-414.13 -9.87, -422.22 -6.98, -434.29 -2.67 M-406.03 -12.76 C-416.23 -9.12, -426.43 -5.48, -434.29 -2.67" stroke="#000000" stroke-width="1" fill="none"></path></g><g transform="translate(1264.7424495089865 705.2055443931745) rotate(0 -217.1428571428571 -1.3364295804302628)"><path d="M-406.16 7.76 C-414.22 4.77, -422.28 1.78, -434.29 -2.67 M-406.16 7.76 C-416.31 4, -426.46 0.23, -434.29 -2.67" stroke="#000000" stroke-width="1" fill="none"></path></g></g><g transform="translate(943.313878080415 213.99999999999983) rotate(0 87 21.5)"><text x="0" y="34" font-family="Helvetica, Segoe UI Emoji" font-size="36px" fill="#000000" text-anchor="start" style="white-space: pre;" direction="ltr">REQUETE</text></g><g transform="translate(959.0281637947012 635.4285714285713) rotate(0 88 21.5)"><text x="0" y="34" font-family="Helvetica, Segoe UI Emoji" font-size="36px" fill="#000000" text-anchor="start" style="white-space: pre;" direction="ltr">REPONSE</text></g><g stroke-linecap="round"><g transform="translate(499.12944752153794 734.317853565919) rotate(0 -99.45564546281867 -0.7207672888764591)"><path d="M0 0 C-33.15 -0.24, -165.76 -1.2, -198.91 -1.44 M0 0 C-33.15 -0.24, -165.76 -1.2, -198.91 -1.44" stroke="#000000" stroke-width="1" fill="none"></path></g><g transform="translate(499.12944752153794 734.317853565919) rotate(0 -99.45564546281867 -0.7207672888764591)"><path d="M-170.65 -11.5 C-176.56 -9.39, -182.48 -7.29, -198.91 -1.44 M-170.65 -11.5 C-181.55 -7.62, -192.46 -3.74, -198.91 -1.44" stroke="#000000" stroke-width="1" fill="none"></path></g><g transform="translate(499.12944752153794 734.317853565919) rotate(0 -99.45564546281867 -0.7207672888764591)"><path d="M-170.8 9.02 C-176.68 6.83, -182.56 4.64, -198.91 -1.44 M-170.8 9.02 C-181.65 4.98, -192.49 0.95, -198.91 -1.44" stroke="#000000" stroke-width="1" fill="none"></path></g></g><g transform="translate(350.45673522327274 682.5714285714287) rotate(0 50 16)"><text x="0" y="26" font-family="Helvetica, Segoe UI Emoji" font-size="28px" fill="#000000" text-anchor="start" style="white-space: pre;" direction="ltr">RENDU</text></g><g stroke-linecap="round"><g transform="translate(1596.3977882964793 718.4883348196868) rotate(0 95.81990769876347 -0.33415947583756633)"><path d="M0 0 C31.94 -0.11, 159.7 -0.56, 191.64 -0.67 M0 0 C31.94 -0.11, 159.7 -0.56, 191.64 -0.67" stroke="#000000" stroke-width="1" fill="none"></path></g><g transform="translate(1596.3977882964793 718.4883348196868) rotate(0 95.81990769876347 -0.33415947583756633)"><path d="M28.15 -10.36 C21.26 -7.82, 14.36 -5.28, 0 0 M28.15 -10.36 C21.31 -7.84, 14.47 -5.32, 0 0" stroke="#000000" stroke-width="1" fill="none"></path></g><g transform="translate(1596.3977882964793 718.4883348196868) rotate(0 95.81990769876347 -0.33415947583756633)"><path d="M28.23 10.16 C21.31 7.67, 14.4 5.18, 0 0 M28.23 10.16 C21.37 7.69, 14.5 5.22, 0 0" stroke="#000000" stroke-width="1" fill="none"></path></g></g><g transform="translate(1615.4567352232723 676.5714285714284) rotate(0 81.5 16)"><text x="0" y="26" font-family="Helvetica, Segoe UI Emoji" font-size="28px" fill="#000000" text-anchor="start" style="white-space: pre;" direction="ltr">EXECUTION</text></g><g stroke-linecap="round" transform="translate(826.313878080415 62.99999999999994) rotate(0 211 508)"><path d="M105.5 0 M105.5 0 C175.5 0, 245.49 0, 316.5 0 M316.5 0 C386.83 0, 422 35.17, 422 105.5 M422 105.5 C422 386.01, 422 666.53, 422 910.5 M422 910.5 C422 980.83, 386.83 1016, 316.5 1016 M316.5 1016 C263.81 1016, 211.13 1016, 105.5 1016 M105.5 1016 C35.17 1016, 0 980.83, 0 910.5 M0 910.5 C0 603.74, 0 296.99, 0 105.5 M0 105.5 C0 35.17, 35.17 0, 105.5 0" stroke="#000000" stroke-width="1.5" fill="none" stroke-dasharray="1.5 7"></path></g><g transform="translate(984.313878080415 10) rotate(0 47 21.5)"><text x="0" y="34" font-family="Helvetica, Segoe UI Emoji" font-size="36px" fill="#000000" text-anchor="start" style="white-space: pre;" direction="ltr">HTTP</text></g><g stroke-linecap="round" transform="translate(998.563878080415 114.24999999999994) rotate(0 34 35.214285714285694)"><path d="M55.1 7.6 C60.62 12.12, 65.47 20.03, 67.09 27.12 C68.71 34.21, 67.78 43.54, 64.8 50.14 C61.81 56.74, 55.5 63.45, 49.2 66.71 C42.91 69.97, 33.93 71.17, 27.05 69.68 C20.16 68.2, 12.4 63.37, 7.9 57.78 C3.39 52.18, 0.19 43.41, 0.01 36.13 C-0.17 28.85, 2.58 19.91, 6.8 14.08 C11.02 8.26, 18.53 3.02, 25.33 1.16 C32.13 -0.69, 41.16 0.03, 47.61 2.94" stroke="none" stroke-width="0" fill="#ced4da"></path><path d="M55.1 7.6 C60.62 12.12, 65.47 20.03, 67.09 27.12 C68.71 34.21, 67.78 43.54, 64.8 50.14 C61.81 56.74, 55.5 63.45, 49.2 66.71 C42.91 69.97, 33.93 71.17, 27.05 69.68 C20.16 68.2, 12.4 63.37, 7.9 57.78 C3.39 52.18, 0.19 43.41, 0.01 36.13 C-0.17 28.85, 2.58 19.91, 6.8 14.08 C11.02 8.26, 18.53 3.02, 25.33 1.16 C32.13 -0.69, 41.16 0.03, 47.61 2.94" stroke="#000000" stroke-width="4" fill="none"></path></g><g transform="translate(1024.563878080415 133.4642857142856) rotate(0 8 16)"><text x="8" y="26" font-family="Helvetica, Segoe UI Emoji" font-size="28px" fill="#000000" text-anchor="middle" style="white-space: pre;" direction="ltr">1</text></g><g stroke-linecap="round" transform="translate(1656.0638780804154 491.2857142857143) rotate(0 34 35.21428571428572)"><path d="M55.1 7.6 C60.62 12.12, 65.47 20.03, 67.09 27.12 C68.71 34.21, 67.78 43.54, 64.8 50.14 C61.81 56.74, 55.5 63.45, 49.2 66.71 C42.91 69.97, 33.93 71.17, 27.05 69.68 C20.16 68.2, 12.4 63.37, 7.9 57.78 C3.39 52.18, 0.19 43.41, 0.01 36.13 C-0.17 28.85, 2.58 19.91, 6.8 14.08 C11.02 8.26, 18.53 3.02, 25.33 1.16 C32.13 -0.69, 41.16 0.03, 47.61 2.94" stroke="none" stroke-width="0" fill="#ced4da"></path><path d="M55.1 7.6 C60.62 12.12, 65.47 20.03, 67.09 27.12 C68.71 34.21, 67.78 43.54, 64.8 50.14 C61.81 56.74, 55.5 63.45, 49.2 66.71 C42.91 69.97, 33.93 71.17, 27.05 69.68 C20.16 68.2, 12.4 63.37, 7.9 57.78 C3.39 52.18, 0.19 43.41, 0.01 36.13 C-0.17 28.85, 2.58 19.91, 6.8 14.08 C11.02 8.26, 18.53 3.02, 25.33 1.16 C32.13 -0.69, 41.16 0.03, 47.61 2.94" stroke="#000000" stroke-width="4" fill="none"></path></g><g transform="translate(1684.5638780804154 510.49999999999983) rotate(0 8 16)"><text x="8" y="26" font-family="Helvetica, Segoe UI Emoji" font-size="28px" fill="#000000" text-anchor="middle" style="white-space: pre;" direction="ltr">2</text></g><g stroke-linecap="round" transform="translate(1006.063878080415 497.53571428571416) rotate(0 34 35.214285714285666)"><path d="M55.1 7.6 C60.62 12.12, 65.47 20.03, 67.09 27.12 C68.71 34.21, 67.78 43.54, 64.8 50.14 C61.81 56.74, 55.5 63.45, 49.2 66.71 C42.91 69.97, 33.93 71.17, 27.05 69.68 C20.16 68.2, 12.4 63.37, 7.9 57.78 C3.39 52.18, 0.19 43.41, 0.01 36.13 C-0.17 28.85, 2.58 19.91, 6.8 14.08 C11.02 8.26, 18.53 3.02, 25.33 1.16 C32.13 -0.69, 41.16 0.03, 47.61 2.94" stroke="none" stroke-width="0" fill="#ced4da"></path><path d="M55.1 7.6 C60.62 12.12, 65.47 20.03, 67.09 27.12 C68.71 34.21, 67.78 43.54, 64.8 50.14 C61.81 56.74, 55.5 63.45, 49.2 66.71 C42.91 69.97, 33.93 71.17, 27.05 69.68 C20.16 68.2, 12.4 63.37, 7.9 57.78 C3.39 52.18, 0.19 43.41, 0.01 36.13 C-0.17 28.85, 2.58 19.91, 6.8 14.08 C11.02 8.26, 18.53 3.02, 25.33 1.16 C32.13 -0.69, 41.16 0.03, 47.61 2.94" stroke="#000000" stroke-width="4" fill="none"></path></g><g transform="translate(1032.063878080415 516.75) rotate(0 8 16)"><text x="8" y="26" font-family="Helvetica, Segoe UI Emoji" font-size="28px" fill="#000000" text-anchor="middle" style="white-space: pre;" direction="ltr">3</text></g><g stroke-linecap="round" transform="translate(373.56387808041495 488.7857142857143) rotate(0 34 35.21428571428572)"><path d="M55.1 7.6 C60.62 12.12, 65.47 20.03, 67.09 27.12 C68.71 34.21, 67.78 43.54, 64.8 50.14 C61.81 56.74, 55.5 63.45, 49.2 66.71 C42.91 69.97, 33.93 71.17, 27.05 69.68 C20.16 68.2, 12.4 63.37, 7.9 57.78 C3.39 52.18, 0.19 43.41, 0.01 36.13 C-0.17 28.85, 2.58 19.91, 6.8 14.08 C11.02 8.26, 18.53 3.02, 25.33 1.16 C32.13 -0.69, 41.16 0.03, 47.61 2.94" stroke="none" stroke-width="0" fill="#ced4da"></path><path d="M55.1 7.6 C60.62 12.12, 65.47 20.03, 67.09 27.12 C68.71 34.21, 67.78 43.54, 64.8 50.14 C61.81 56.74, 55.5 63.45, 49.2 66.71 C42.91 69.97, 33.93 71.17, 27.05 69.68 C20.16 68.2, 12.4 63.37, 7.9 57.78 C3.39 52.18, 0.19 43.41, 0.01 36.13 C-0.17 28.85, 2.58 19.91, 6.8 14.08 C11.02 8.26, 18.53 3.02, 25.33 1.16 C32.13 -0.69, 41.16 0.03, 47.61 2.94" stroke="#000000" stroke-width="4" fill="none"></path></g><g transform="translate(399.56387808041495 507.99999999999994) rotate(0 8 16)"><text x="8" y="26" font-family="Helvetica, Segoe UI Emoji" font-size="28px" fill="#000000" text-anchor="middle" style="white-space: pre;" direction="ltr">4</text></g></svg>